<svg xmlns="http://www.w3.org/2000/svg" xmlns:xlink="http://www.w3.org/1999/xlink" width="500" zoomAndPan="magnify" viewBox="0 0 375 374.999991" height="500" preserveAspectRatio="xMidYMid meet" version="1.0"><defs><g/><clipPath id="105be2c822"><path d="M 226.402344 128.816406 L 255.089844 128.816406 L 255.089844 160.210938 L 226.402344 160.210938 Z M 226.402344 128.816406 " clip-rule="nonzero"/></clipPath><clipPath id="8f79e1464a"><path d="M 97.503906 128.816406 L 210 128.816406 L 210 160.210938 L 97.503906 160.210938 Z M 97.503906 128.816406 " clip-rule="nonzero"/></clipPath><clipPath id="1c0d2f0d70"><path d="M 271.589844 128.816406 L 285.410156 128.816406 L 285.410156 160.210938 L 271.589844 160.210938 Z M 271.589844 128.816406 " clip-rule="nonzero"/></clipPath></defs><g clip-path="url(#105be2c822)"><path fill="#ffffff" d="M 226.402344 128.816406 L 255.089844 128.816406 L 255.089844 160.195312 L 226.402344 160.195312 Z M 226.402344 128.816406 " fill-opacity="1" fill-rule="nonzero"/></g><g fill="#ffffff" fill-opacity="1"><g transform="translate(72.502792, 202.874987)"><g><path d="M 18.4375 -9.609375 C 18.4375 -10.722656 18.21875 -11.601562 17.78125 -12.25 C 17.34375 -12.90625 16.726562 -13.367188 15.9375 -13.640625 C 15.15625 -13.921875 14.238281 -14.0625 13.1875 -14.0625 L 10.09375 -14.0625 L 10.09375 -5.484375 L 12.859375 -5.484375 C 13.597656 -5.484375 14.296875 -5.535156 14.953125 -5.640625 C 15.617188 -5.742188 16.21875 -5.941406 16.75 -6.234375 C 17.28125 -6.523438 17.691406 -6.941406 17.984375 -7.484375 C 18.285156 -8.023438 18.4375 -8.734375 18.4375 -9.609375 Z M 17.25 -22.90625 C 17.25 -24.15625 16.851562 -25.054688 16.0625 -25.609375 C 15.269531 -26.171875 14.050781 -26.453125 12.40625 -26.453125 L 10.09375 -26.453125 L 10.09375 -19.09375 L 12.640625 -19.09375 C 14.253906 -19.09375 15.425781 -19.390625 16.15625 -19.984375 C 16.882812 -20.585938 17.25 -21.5625 17.25 -22.90625 Z M 26.1875 -9.3125 C 26.1875 -7.476562 25.832031 -5.957031 25.125 -4.75 C 24.425781 -3.539062 23.460938 -2.59375 22.234375 -1.90625 C 21.015625 -1.21875 19.617188 -0.726562 18.046875 -0.4375 C 16.484375 -0.144531 14.835938 0 13.109375 0 L 2.5625 0 L 2.5625 -31.78125 L 12.640625 -31.78125 C 14.273438 -31.78125 15.820312 -31.644531 17.28125 -31.375 C 18.738281 -31.113281 20.03125 -30.671875 21.15625 -30.046875 C 22.289062 -29.429688 23.179688 -28.597656 23.828125 -27.546875 C 24.484375 -26.503906 24.8125 -25.207031 24.8125 -23.65625 C 24.8125 -22.394531 24.539062 -21.300781 24 -20.375 C 23.46875 -19.445312 22.757812 -18.6875 21.875 -18.09375 C 20.988281 -17.507812 20.023438 -17.085938 18.984375 -16.828125 C 20.117188 -16.648438 21.238281 -16.296875 22.34375 -15.765625 C 23.445312 -15.234375 24.363281 -14.445312 25.09375 -13.40625 C 25.820312 -12.375 26.1875 -11.007812 26.1875 -9.3125 Z M 26.1875 -9.3125 "/></g></g></g><g fill="#ffffff" fill-opacity="1"><g transform="translate(100.008951, 202.874987)"><g><path d="M 23.703125 -7.015625 C 23.703125 -6.097656 23.828125 -5.429688 24.078125 -5.015625 C 24.335938 -4.609375 24.75 -4.296875 25.3125 -4.078125 L 23.828125 0.6875 C 22.390625 0.550781 21.175781 0.234375 20.1875 -0.265625 C 19.195312 -0.765625 18.421875 -1.515625 17.859375 -2.515625 C 16.929688 -1.398438 15.738281 -0.570312 14.28125 -0.03125 C 12.832031 0.507812 11.351562 0.78125 9.84375 0.78125 C 7.332031 0.78125 5.332031 0.0664062 3.84375 -1.359375 C 2.351562 -2.796875 1.609375 -4.632812 1.609375 -6.875 C 1.609375 -9.519531 2.640625 -11.5625 4.703125 -13 C 6.773438 -14.4375 9.691406 -15.15625 13.453125 -15.15625 L 16.734375 -15.15625 L 16.734375 -16.078125 C 16.734375 -17.347656 16.320312 -18.285156 15.5 -18.890625 C 14.6875 -19.503906 13.492188 -19.8125 11.921875 -19.8125 C 11.140625 -19.8125 10.132812 -19.695312 8.90625 -19.46875 C 7.6875 -19.25 6.46875 -18.9375 5.25 -18.53125 L 3.578125 -23.34375 C 5.148438 -23.9375 6.785156 -24.382812 8.484375 -24.6875 C 10.191406 -25 11.71875 -25.15625 13.0625 -25.15625 C 16.6875 -25.15625 19.363281 -24.414062 21.09375 -22.9375 C 22.832031 -21.46875 23.703125 -19.34375 23.703125 -16.5625 Z M 12.34375 -4.40625 C 13.113281 -4.40625 13.925781 -4.632812 14.78125 -5.09375 C 15.644531 -5.5625 16.296875 -6.222656 16.734375 -7.078125 L 16.734375 -11.03125 L 14.953125 -11.03125 C 12.929688 -11.03125 11.445312 -10.71875 10.5 -10.09375 C 9.550781 -9.476562 9.078125 -8.578125 9.078125 -7.390625 C 9.078125 -6.453125 9.363281 -5.71875 9.9375 -5.1875 C 10.507812 -4.664062 11.3125 -4.40625 12.34375 -4.40625 Z M 12.34375 -4.40625 "/></g></g></g><g fill="#ffffff" fill-opacity="1"><g transform="translate(127.51511, 202.874987)"><g><path d="M 12.984375 -4.40625 C 14.191406 -4.40625 15.164062 -4.59375 15.90625 -4.96875 C 16.644531 -5.351562 17.015625 -5.929688 17.015625 -6.703125 C 17.015625 -7.210938 16.867188 -7.644531 16.578125 -8 C 16.285156 -8.351562 15.726562 -8.691406 14.90625 -9.015625 C 14.082031 -9.335938 12.859375 -9.71875 11.234375 -10.15625 C 9.753906 -10.550781 8.441406 -11.054688 7.296875 -11.671875 C 6.160156 -12.285156 5.273438 -13.070312 4.640625 -14.03125 C 4.003906 -15 3.6875 -16.203125 3.6875 -17.640625 C 3.6875 -19.085938 4.09375 -20.375 4.90625 -21.5 C 5.71875 -22.632812 6.910156 -23.523438 8.484375 -24.171875 C 10.054688 -24.828125 11.984375 -25.15625 14.265625 -25.15625 C 16.429688 -25.15625 18.320312 -24.875 19.9375 -24.3125 C 21.550781 -23.757812 22.945312 -23.054688 24.125 -22.203125 L 21.234375 -17.9375 C 20.222656 -18.5625 19.132812 -19.0625 17.96875 -19.4375 C 16.8125 -19.8125 15.644531 -20 14.46875 -20 C 13.289062 -20 12.414062 -19.835938 11.84375 -19.515625 C 11.269531 -19.203125 10.984375 -18.734375 10.984375 -18.109375 C 10.984375 -17.703125 11.128906 -17.347656 11.421875 -17.046875 C 11.722656 -16.742188 12.285156 -16.4375 13.109375 -16.125 C 13.941406 -15.8125 15.148438 -15.425781 16.734375 -14.96875 C 18.304688 -14.53125 19.675781 -14.019531 20.84375 -13.4375 C 22.019531 -12.851562 22.925781 -12.078125 23.5625 -11.109375 C 24.207031 -10.140625 24.53125 -8.859375 24.53125 -7.265625 C 24.53125 -5.492188 24.003906 -4.007812 22.953125 -2.8125 C 21.898438 -1.613281 20.5 -0.710938 18.75 -0.109375 C 17.007812 0.484375 15.101562 0.78125 13.03125 0.78125 C 10.675781 0.78125 8.59375 0.445312 6.78125 -0.21875 C 4.976562 -0.894531 3.441406 -1.785156 2.171875 -2.890625 L 5.828125 -6.96875 C 6.773438 -6.238281 7.847656 -5.628906 9.046875 -5.140625 C 10.242188 -4.648438 11.554688 -4.40625 12.984375 -4.40625 Z M 12.984375 -4.40625 "/></g></g></g><g fill="#ffffff" fill-opacity="1"><g transform="translate(155.021268, 202.874987)"><g><path d="M 9.5 -10.0625 C 9.664062 -8.738281 10.007812 -7.664062 10.53125 -6.84375 C 11.0625 -6.03125 11.738281 -5.4375 12.5625 -5.0625 C 13.382812 -4.6875 14.3125 -4.5 15.34375 -4.5 C 16.457031 -4.5 17.53125 -4.679688 18.5625 -5.046875 C 19.601562 -5.410156 20.609375 -5.898438 21.578125 -6.515625 L 24.484375 -2.5625 C 23.335938 -1.582031 21.953125 -0.78125 20.328125 -0.15625 C 18.703125 0.46875 16.847656 0.78125 14.765625 0.78125 C 11.984375 0.78125 9.648438 0.226562 7.765625 -0.875 C 5.890625 -1.988281 4.476562 -3.515625 3.53125 -5.453125 C 2.582031 -7.398438 2.109375 -9.632812 2.109375 -12.15625 C 2.109375 -14.550781 2.566406 -16.726562 3.484375 -18.6875 C 4.398438 -20.65625 5.738281 -22.222656 7.5 -23.390625 C 9.269531 -24.566406 11.429688 -25.15625 13.984375 -25.15625 C 16.304688 -25.15625 18.316406 -24.65625 20.015625 -23.65625 C 21.722656 -22.664062 23.046875 -21.238281 23.984375 -19.375 C 24.929688 -17.507812 25.40625 -15.269531 25.40625 -12.65625 C 25.40625 -12.238281 25.394531 -11.789062 25.375 -11.3125 C 25.351562 -10.84375 25.316406 -10.425781 25.265625 -10.0625 Z M 13.984375 -20.296875 C 12.679688 -20.296875 11.632812 -19.828125 10.84375 -18.890625 C 10.050781 -17.960938 9.570312 -16.472656 9.40625 -14.421875 L 18.34375 -14.421875 C 18.332031 -16.191406 17.988281 -17.613281 17.3125 -18.6875 C 16.632812 -19.757812 15.523438 -20.296875 13.984375 -20.296875 Z M 13.984375 -20.296875 "/></g></g></g><g fill="#ffffff" fill-opacity="1"><g transform="translate(182.527427, 202.874987)"><g><path d="M 12.5 -26.421875 L 12.5 -18 L 23.640625 -18 L 23.640625 -12.609375 L 12.5 -12.609375 L 12.5 0 L 4.953125 0 L 4.953125 -31.78125 L 25.84375 -31.78125 L 25.0625 -26.421875 Z M 12.5 -26.421875 "/></g></g></g><g fill="#ffffff" fill-opacity="1"><g transform="translate(210.033586, 202.874987)"><g><path d="M 13.75 -25.15625 C 16.257812 -25.15625 18.394531 -24.617188 20.15625 -23.546875 C 21.914062 -22.472656 23.257812 -20.96875 24.1875 -19.03125 C 25.125 -17.101562 25.59375 -14.84375 25.59375 -12.25 C 25.59375 -9.539062 25.117188 -7.210938 24.171875 -5.265625 C 23.234375 -3.316406 21.882812 -1.820312 20.125 -0.78125 C 18.375 0.257812 16.25 0.78125 13.75 0.78125 C 11.28125 0.78125 9.160156 0.269531 7.390625 -0.75 C 5.628906 -1.78125 4.273438 -3.265625 3.328125 -5.203125 C 2.390625 -7.140625 1.921875 -9.472656 1.921875 -12.203125 C 1.921875 -14.785156 2.390625 -17.046875 3.328125 -18.984375 C 4.273438 -20.921875 5.628906 -22.429688 7.390625 -23.515625 C 9.160156 -24.609375 11.28125 -25.15625 13.75 -25.15625 Z M 13.75 -19.8125 C 12.269531 -19.8125 11.175781 -19.203125 10.46875 -17.984375 C 9.757812 -16.773438 9.40625 -14.847656 9.40625 -12.203125 C 9.40625 -9.503906 9.757812 -7.550781 10.46875 -6.34375 C 11.175781 -5.144531 12.269531 -4.546875 13.75 -4.546875 C 15.238281 -4.546875 16.335938 -5.144531 17.046875 -6.34375 C 17.753906 -7.550781 18.109375 -9.519531 18.109375 -12.25 C 18.109375 -14.875 17.753906 -16.789062 17.046875 -18 C 16.335938 -19.207031 15.238281 -19.8125 13.75 -19.8125 Z M 13.75 -19.8125 "/></g></g></g><g fill="#ffffff" fill-opacity="1"><g transform="translate(237.539745, 202.874987)"><g><path d="M 3.4375 0 L 3.4375 -4.859375 L 6.65625 -4.859375 L 6.65625 -19.53125 L 3.4375 -19.53125 L 3.4375 -24.34375 L 12.171875 -24.34375 L 13.5 -18.875 C 14.375 -20.96875 15.488281 -22.523438 16.84375 -23.546875 C 18.195312 -24.566406 19.851562 -25.078125 21.8125 -25.078125 C 22.632812 -25.078125 23.363281 -25.007812 24 -24.875 C 24.644531 -24.75 25.25 -24.570312 25.8125 -24.34375 L 23.625 -18.359375 C 23.175781 -18.484375 22.726562 -18.578125 22.28125 -18.640625 C 21.84375 -18.703125 21.351562 -18.734375 20.8125 -18.734375 C 19.226562 -18.734375 17.832031 -18.082031 16.625 -16.78125 C 15.425781 -15.476562 14.515625 -13.828125 13.890625 -11.828125 L 13.890625 -4.859375 L 18.703125 -4.859375 L 18.703125 0 Z M 19.921875 -14.171875 L 19.921875 -21.28125 L 21 -24.34375 L 25.8125 -24.34375 L 24.46875 -14.171875 Z M 19.921875 -14.171875 "/></g></g></g><g fill="#ffffff" fill-opacity="1"><g transform="translate(265.045915, 202.874987)"><g><path d="M 24.828125 -28.25 L 26.53125 -22.921875 C 25.675781 -22.585938 24.675781 -22.34375 23.53125 -22.1875 C 22.382812 -22.039062 21.046875 -21.96875 19.515625 -21.96875 C 21.046875 -21.3125 22.210938 -20.492188 23.015625 -19.515625 C 23.816406 -18.546875 24.21875 -17.273438 24.21875 -15.703125 C 24.21875 -14.128906 23.796875 -12.726562 22.953125 -11.5 C 22.109375 -10.269531 20.914062 -9.300781 19.375 -8.59375 C 17.832031 -7.894531 16.003906 -7.546875 13.890625 -7.546875 C 13.367188 -7.546875 12.878906 -7.566406 12.421875 -7.609375 C 11.960938 -7.660156 11.515625 -7.726562 11.078125 -7.8125 C 10.816406 -7.675781 10.613281 -7.476562 10.46875 -7.21875 C 10.332031 -6.957031 10.265625 -6.691406 10.265625 -6.421875 C 10.265625 -6.035156 10.421875 -5.691406 10.734375 -5.390625 C 11.054688 -5.085938 11.796875 -4.9375 12.953125 -4.9375 L 16.9375 -4.9375 C 18.832031 -4.9375 20.472656 -4.628906 21.859375 -4.015625 C 23.242188 -3.398438 24.316406 -2.566406 25.078125 -1.515625 C 25.847656 -0.460938 26.234375 0.742188 26.234375 2.109375 C 26.234375 4.597656 25.140625 6.5625 22.953125 8 C 20.765625 9.4375 17.515625 10.15625 13.203125 10.15625 C 10.085938 10.15625 7.675781 9.835938 5.96875 9.203125 C 4.269531 8.566406 3.085938 7.664062 2.421875 6.5 C 1.753906 5.332031 1.421875 3.945312 1.421875 2.34375 L 7.84375 2.34375 C 7.84375 3.039062 7.984375 3.613281 8.265625 4.0625 C 8.546875 4.519531 9.085938 4.851562 9.890625 5.0625 C 10.691406 5.28125 11.859375 5.390625 13.390625 5.390625 C 14.929688 5.390625 16.109375 5.265625 16.921875 5.015625 C 17.734375 4.773438 18.285156 4.441406 18.578125 4.015625 C 18.878906 3.597656 19.03125 3.128906 19.03125 2.609375 C 19.03125 1.890625 18.742188 1.304688 18.171875 0.859375 C 17.609375 0.421875 16.71875 0.203125 15.5 0.203125 L 11.625 0.203125 C 9 0.203125 7.085938 -0.28125 5.890625 -1.25 C 4.703125 -2.21875 4.109375 -3.351562 4.109375 -4.65625 C 4.109375 -5.550781 4.347656 -6.40625 4.828125 -7.21875 C 5.304688 -8.03125 5.984375 -8.710938 6.859375 -9.265625 C 5.296875 -10.085938 4.175781 -11.0625 3.5 -12.1875 C 2.832031 -13.3125 2.5 -14.660156 2.5 -16.234375 C 2.5 -18.066406 2.960938 -19.644531 3.890625 -20.96875 C 4.828125 -22.289062 6.117188 -23.3125 7.765625 -24.03125 C 9.410156 -24.75 11.285156 -25.109375 13.390625 -25.109375 C 15.210938 -25.078125 16.796875 -25.203125 18.140625 -25.484375 C 19.484375 -25.765625 20.6875 -26.15625 21.75 -26.65625 C 22.820312 -27.15625 23.847656 -27.6875 24.828125 -28.25 Z M 13.578125 -20.40625 C 12.429688 -20.40625 11.519531 -20.039062 10.84375 -19.3125 C 10.175781 -18.59375 9.84375 -17.597656 9.84375 -16.328125 C 9.84375 -14.984375 10.1875 -13.953125 10.875 -13.234375 C 11.5625 -12.515625 12.460938 -12.15625 13.578125 -12.15625 C 14.785156 -12.15625 15.703125 -12.515625 16.328125 -13.234375 C 16.960938 -13.953125 17.28125 -15.015625 17.28125 -16.421875 C 17.28125 -17.773438 16.96875 -18.773438 16.34375 -19.421875 C 15.71875 -20.078125 14.796875 -20.40625 13.578125 -20.40625 Z M 13.578125 -20.40625 "/></g></g></g><g fill="#ffffff" fill-opacity="1"><g transform="translate(292.552063, 202.874987)"><g><path d="M 9.5 -10.0625 C 9.664062 -8.738281 10.007812 -7.664062 10.53125 -6.84375 C 11.0625 -6.03125 11.738281 -5.4375 12.5625 -5.0625 C 13.382812 -4.6875 14.3125 -4.5 15.34375 -4.5 C 16.457031 -4.5 17.53125 -4.679688 18.5625 -5.046875 C 19.601562 -5.410156 20.609375 -5.898438 21.578125 -6.515625 L 24.484375 -2.5625 C 23.335938 -1.582031 21.953125 -0.78125 20.328125 -0.15625 C 18.703125 0.46875 16.847656 0.78125 14.765625 0.78125 C 11.984375 0.78125 9.648438 0.226562 7.765625 -0.875 C 5.890625 -1.988281 4.476562 -3.515625 3.53125 -5.453125 C 2.582031 -7.398438 2.109375 -9.632812 2.109375 -12.15625 C 2.109375 -14.550781 2.566406 -16.726562 3.484375 -18.6875 C 4.398438 -20.65625 5.738281 -22.222656 7.5 -23.390625 C 9.269531 -24.566406 11.429688 -25.15625 13.984375 -25.15625 C 16.304688 -25.15625 18.316406 -24.65625 20.015625 -23.65625 C 21.722656 -22.664062 23.046875 -21.238281 23.984375 -19.375 C 24.929688 -17.507812 25.40625 -15.269531 25.40625 -12.65625 C 25.40625 -12.238281 25.394531 -11.789062 25.375 -11.3125 C 25.351562 -10.84375 25.316406 -10.425781 25.265625 -10.0625 Z M 13.984375 -20.296875 C 12.679688 -20.296875 11.632812 -19.828125 10.84375 -18.890625 C 10.050781 -17.960938 9.570312 -16.472656 9.40625 -14.421875 L 18.34375 -14.421875 C 18.332031 -16.191406 17.988281 -17.613281 17.3125 -18.6875 C 16.632812 -19.757812 15.523438 -20.296875 13.984375 -20.296875 Z M 13.984375 -20.296875 "/></g></g></g><g clip-path="url(#8f79e1464a)"><path fill="#ffffff" d="M 97.503906 128.816406 L 209.953125 128.816406 L 209.953125 160.210938 L 97.503906 160.210938 Z M 97.503906 128.816406 " fill-opacity="1" fill-rule="nonzero"/></g><g clip-path="url(#1c0d2f0d70)"><path fill="#ffffff" d="M 271.589844 128.816406 L 285.410156 128.816406 L 285.410156 160.234375 L 271.589844 160.234375 Z M 271.589844 128.816406 " fill-opacity="1" fill-rule="nonzero"/></g></svg>