<svg xmlns="http://www.w3.org/2000/svg" xmlns:xlink="http://www.w3.org/1999/xlink" width="500" zoomAndPan="magnify" viewBox="0 0 375 374.999991" height="500" preserveAspectRatio="xMidYMid meet" version="1.0"><defs><clipPath id="97c941100e"><path d="M 226 73.128906 L 345 73.128906 L 345 230 L 226 230 Z M 226 73.128906 " clip-rule="nonzero"/></clipPath><clipPath id="7d70622e89"><path d="M 27.261719 279 L 46 279 L 46 301 L 27.261719 301 Z M 27.261719 279 " clip-rule="nonzero"/></clipPath><clipPath id="bc222ce3c4"><path d="M 298 266 L 342 266 L 342 301.878906 L 298 301.878906 Z M 298 266 " clip-rule="nonzero"/></clipPath></defs><path fill="#000000" d="M 231.5625 119.90625 C 230.375 124.460938 232.082031 129.523438 229.964844 133.8125 C 228.664062 136.441406 226.140625 138.175781 223.878906 140.023438 C 221.617188 141.871094 219.394531 144.207031 219.144531 147.136719 C 218.851562 150.585938 221.375 154.199219 219.894531 157.320312 C 218.699219 159.839844 215.464844 160.648438 213.785156 162.867188 C 212.339844 164.78125 212.511719 167.960938 214.53125 169.230469 C 216.328125 170.359375 218.644531 169.671875 220.753906 169.796875 C 223.773438 169.972656 226.394531 171.84375 229.125 173.15625 C 231.953125 174.519531 235.125 175.328125 238.230469 174.921875 C 241.339844 174.511719 244.359375 172.761719 245.84375 169.96875 C 246.761719 168.242188 247.046875 166.25 247.28125 164.300781 C 247.601562 161.632812 247.847656 158.957031 248.089844 156.277344 C 248.214844 154.9375 248.324219 153.523438 247.769531 152.300781 C 247.253906 151.167969 246.238281 150.363281 245.320312 149.53125 C 238.277344 143.109375 235.871094 133.390625 235.542969 123.90625 C 235.449219 121.242188 236.277344 117.40625 235.5 114.964844 C 233.433594 115.277344 232.039062 118.070312 231.5625 119.90625 Z M 231.5625 119.90625 " fill-opacity="1" fill-rule="nonzero"/><path fill="#000000" d="M 84.617188 214.546875 C 84.617188 214.632812 84.574219 214.714844 84.480469 214.796875 C 84.390625 214.875 84.257812 214.957031 84.082031 215.03125 C 83.902344 215.109375 83.6875 215.179688 83.429688 215.25 C 83.171875 215.320312 82.878906 215.382812 82.550781 215.441406 C 82.222656 215.5 81.867188 215.554688 81.480469 215.597656 C 81.097656 215.644531 80.691406 215.683594 80.261719 215.714844 C 79.832031 215.746094 79.390625 215.773438 78.9375 215.789062 C 78.484375 215.804688 78.023438 215.8125 77.5625 215.8125 C 77.097656 215.8125 76.640625 215.804688 76.183594 215.789062 C 75.730469 215.773438 75.289062 215.746094 74.859375 215.714844 C 74.433594 215.683594 74.027344 215.644531 73.640625 215.597656 C 73.253906 215.554688 72.898438 215.5 72.570312 215.441406 C 72.242188 215.382812 71.953125 215.320312 71.695312 215.25 C 71.4375 215.179688 71.21875 215.109375 71.042969 215.03125 C 70.863281 214.957031 70.730469 214.875 70.640625 214.796875 C 70.550781 214.714844 70.503906 214.632812 70.503906 214.546875 C 70.503906 214.464844 70.550781 214.382812 70.640625 214.300781 C 70.730469 214.222656 70.863281 214.140625 71.042969 214.066406 C 71.21875 213.988281 71.4375 213.914062 71.695312 213.847656 C 71.953125 213.777344 72.242188 213.714844 72.570312 213.65625 C 72.898438 213.597656 73.253906 213.542969 73.640625 213.5 C 74.027344 213.453125 74.433594 213.414062 74.859375 213.382812 C 75.289062 213.351562 75.730469 213.324219 76.183594 213.308594 C 76.640625 213.292969 77.097656 213.285156 77.5625 213.285156 C 78.023438 213.285156 78.484375 213.292969 78.9375 213.308594 C 79.390625 213.324219 79.832031 213.351562 80.261719 213.382812 C 80.691406 213.414062 81.097656 213.453125 81.480469 213.5 C 81.867188 213.542969 82.222656 213.597656 82.550781 213.65625 C 82.878906 213.714844 83.171875 213.777344 83.429688 213.847656 C 83.6875 213.914062 83.902344 213.988281 84.082031 214.066406 C 84.257812 214.140625 84.390625 214.222656 84.480469 214.300781 C 84.574219 214.382812 84.617188 214.464844 84.617188 214.546875 Z M 84.617188 214.546875 " fill-opacity="1" fill-rule="nonzero"/><path fill="#000000" d="M 110.929688 166.1875 L 41.027344 166.1875 C 37.339844 166.1875 34.339844 163.550781 34.339844 160.308594 L 34.339844 93.683594 C 34.339844 90.441406 37.339844 87.800781 41.027344 87.800781 L 53.9375 87.800781 C 54.453125 87.800781 54.867188 88.21875 54.867188 88.730469 C 54.867188 89.246094 54.453125 89.660156 53.9375 89.660156 L 41.027344 89.660156 C 38.367188 89.660156 36.199219 91.464844 36.199219 93.683594 L 36.199219 160.308594 C 36.199219 162.523438 38.367188 164.328125 41.027344 164.328125 L 110.929688 164.328125 C 113.59375 164.328125 115.761719 162.523438 115.761719 160.308594 L 115.761719 107.710938 C 115.761719 107.195312 116.179688 106.78125 116.691406 106.78125 C 117.203125 106.78125 117.621094 107.195312 117.621094 107.710938 L 117.621094 160.308594 C 117.621094 163.550781 114.621094 166.1875 110.929688 166.1875 Z M 110.929688 166.1875 " fill-opacity="1" fill-rule="nonzero"/><path fill="#000000" d="M 124.039062 126.160156 C 123.523438 126.160156 123.109375 125.742188 123.109375 125.230469 C 123.109375 121.796875 122.828125 121.839844 120.304688 117.179688 C 118.417969 113.691406 116.914062 111.335938 116.6875 107.359375 C 116.65625 106.847656 117.046875 106.40625 117.558594 106.375 C 118.070312 106.324219 118.511719 106.738281 118.542969 107.25 C 118.625 108.652344 118.917969 110.019531 119.417969 111.320312 C 120.011719 112.859375 120.660156 113.886719 123.933594 119.984375 C 124.894531 121.777344 124.96875 123.289062 124.96875 125.230469 C 124.96875 125.742188 124.550781 126.160156 124.039062 126.160156 Z M 124.039062 126.160156 " fill-opacity="1" fill-rule="nonzero"/><path fill="#000000" d="M 73.6875 139.902344 C 73.175781 139.902344 72.757812 139.484375 72.757812 138.972656 L 72.75 132.230469 C 72.75 131.71875 73.164062 131.300781 73.679688 131.300781 C 74.191406 131.300781 74.609375 131.714844 74.609375 132.230469 L 74.617188 138.96875 C 74.621094 139.484375 74.203125 139.898438 73.691406 139.902344 C 73.6875 139.902344 73.6875 139.902344 73.6875 139.902344 Z M 73.6875 139.902344 " fill-opacity="1" fill-rule="nonzero"/><g clip-path="url(#97c941100e)"><path fill="#000000" d="M 342.289062 198.488281 C 341.640625 201.054688 340.234375 203.429688 339.96875 206.070312 C 339.375 211.988281 344.503906 217.109375 344.222656 223.015625 C 344.085938 225.957031 342.105469 229.042969 339.207031 229.332031 C 336.964844 229.558594 334.859375 228.078125 333.523438 226.25 C 332.1875 224.417969 331.417969 222.238281 330.375 220.226562 C 327.992188 215.632812 324.074219 211.871094 319.417969 209.699219 C 316.664062 208.414062 313.609375 207.636719 311.261719 205.691406 C 307.816406 202.839844 307.539062 199.023438 306.285156 195.058594 C 305.183594 191.582031 302.90625 190.234375 300.171875 187.945312 C 280.5 171.460938 276.3125 175.328125 267.007812 168.324219 C 266.84375 168.203125 267.273438 166.035156 267.300781 165.820312 C 267.414062 164.882812 268.4375 156.1875 268.625 154.589844 C 268.726562 153.777344 268.523438 152.84375 268.660156 152.097656 C 268.867188 150.90625 270.328125 150.324219 271.230469 149.894531 C 274.03125 148.582031 276.449219 146.46875 278.421875 143.992188 C 280.480469 141.433594 281.589844 138.390625 283.355469 135.699219 C 284.347656 136.292969 284.871094 137.46875 286.078125 137.972656 C 289.699219 139.449219 293.175781 136.828125 294.601562 133.207031 C 296.117188 129.363281 295.328125 124.277344 291.894531 121.785156 C 290.011719 120.433594 287.339844 120.269531 285.507812 121.691406 C 284.859375 122.191406 284.324219 122.871094 283.625 123.289062 C 282.9375 123.722656 281.945312 123.804688 281.398438 123.179688 C 281.054688 122.773438 280.976562 122.207031 280.914062 121.664062 C 280.546875 118.472656 281.195312 114.371094 279.566406 111.515625 C 278.574219 112.867188 277.222656 113.925781 275.710938 114.535156 C 276.664062 112.03125 276.21875 108.984375 274.589844 106.914062 C 273.304688 109.433594 270.953125 111.300781 268.304688 111.867188 C 268.734375 109.347656 267.871094 106.757812 266.777344 105.398438 C 266.078125 104.546875 266.054688 104.816406 265.289062 105.453125 C 263.039062 107.320312 260.113281 108.296875 257.273438 107.671875 C 259.691406 106.753906 261.066406 103.53125 260.125 101 C 254.921875 106.375 247.339844 108.945312 240.148438 107.996094 C 234.804688 107.3125 231.761719 105.605469 228.699219 98.308594 C 228.152344 96.996094 227.820312 94.492188 226.957031 93.4375 C 232.503906 100.175781 237.273438 88.242188 240.328125 83.871094 C 240.445312 83.746094 241.691406 81.519531 244.019531 79.253906 C 244.78125 80.933594 245.570312 82.609375 246.359375 84.289062 C 246.871094 85.34375 247.175781 85.660156 248.457031 85.546875 C 250.148438 85.316406 251.777344 84.519531 253.0625 83.300781 C 253.863281 82.578125 254.433594 82.492188 254.679688 83.585938 C 255.097656 85.480469 255.214844 87.441406 255.0625 89.378906 C 256.777344 90.296875 258.777344 88.824219 260.683594 88.890625 C 262.289062 88.957031 263.648438 90.054688 264.882812 91.136719 C 266.878906 92.839844 268.867188 94.53125 270.851562 96.238281 C 269.207031 92.636719 267.582031 89.039062 265.9375 85.414062 C 265.367188 84.167969 264.464844 82.707031 263.152344 82.867188 C 262.453125 82.949219 261.90625 83.519531 261.308594 83.921875 C 260.710938 84.328125 259.84375 84.546875 259.347656 84.03125 C 259.121094 83.773438 259.03125 83.4375 258.929688 83.113281 C 257.609375 78.261719 257.574219 77.914062 257.136719 77.429688 C 256.179688 76.386719 254.515625 77.210938 253.421875 78.089844 C 252.695312 78.023438 251.792969 79.445312 250.8125 79.324219 C 249.464844 79.148438 249.347656 78.226562 248.839844 77.101562 C 248.699219 76.777344 248.558594 76.386719 248.421875 75.941406 C 250.621094 74.734375 253.078125 73.964844 255.761719 73.691406 C 258.992188 73.382812 261.460938 74.425781 263.523438 76.222656 C 274.792969 76.59375 285.199219 81.414062 293.855469 88.5 C 297.90625 91.816406 301.320312 96.15625 302.636719 101.25 C 304.929688 110.160156 300.398438 121.003906 303.820312 127.582031 C 307.5 134.660156 318.53125 134.796875 322.4375 141.75 C 324.875 146.085938 323.632812 151.511719 322.15625 156.269531 C 320.683594 161.03125 319.039062 166.21875 320.824219 170.867188 C 323.933594 178.945312 335.125 180.359375 340.175781 187.367188 C 342.441406 190.515625 343.242188 194.703125 342.289062 198.488281 Z M 342.289062 198.488281 " fill-opacity="1" fill-rule="nonzero"/></g><path fill="#000000" d="M 241.054688 162.621094 C 241.449219 166.117188 238.730469 169.023438 236.386719 171.511719 C 233.707031 174.359375 231.394531 177.457031 229.046875 180.605469 C 226.949219 183.421875 227 185.765625 226.605469 189.296875 C 225.953125 195.1875 222.28125 200.125 218.753906 204.714844 C 214.117188 210.75 211.945312 212.925781 204.21875 215.78125 C 189.3125 221.296875 173.40625 224.90625 158.027344 219.277344 C 155.476562 218.347656 152.875 217.105469 151.269531 214.804688 C 148.054688 210.195312 148.039062 201.734375 141.40625 200.820312 C 141.40625 200.820312 141.355469 200.8125 141.355469 200.8125 C 139.304688 194.792969 119.21875 135.96875 116.410156 127.746094 C 116.171875 127.070312 115.777344 126.308594 115.671875 125.597656 C 115.171875 122.335938 119.621094 121.816406 122.203125 121.066406 L 146.519531 112.601562 C 147.191406 113.839844 145.1875 109.601562 167.21875 156.890625 C 168.476562 159.585938 172.726562 172.371094 175.46875 172.921875 C 176.804688 173.1875 178.15625 172.679688 179.4375 172.195312 C 199.019531 164.761719 220.125 160.535156 241.054688 162.621094 Z M 241.054688 162.621094 " fill-opacity="1" fill-rule="nonzero"/><path fill="#000000" d="M 302.421875 173.890625 C 299.746094 171.523438 296.347656 169.988281 292.855469 168.945312 C 284.726562 166.515625 276.121094 165.507812 267.796875 164.285156 C 267.796875 164.359375 267.785156 164.433594 267.785156 164.496094 C 267.6875 165.871094 267.992188 168.945312 267.304688 170.136719 C 265.796875 172.75 259.308594 172.476562 256.976562 172.042969 C 254.488281 171.597656 249.742188 170.011719 248.367188 167.394531 C 247.71875 166.144531 248.222656 163.613281 248.257812 162.199219 C 243.460938 161.953125 238.65625 161.976562 233.847656 162.300781 C 230.460938 162.515625 227.707031 162.996094 224.425781 164.59375 C 224.121094 164.730469 221.800781 165.757812 221.800781 166.070312 C 221.863281 167.816406 222.328125 169.402344 222.980469 170.976562 C 224.339844 174.277344 221.117188 178.613281 220.074219 181.566406 C 218.367188 186.402344 217.519531 191.867188 216.28125 196.875 C 212.898438 210.539062 208.886719 224.015625 206.113281 237.578125 C 205.453125 240.824219 203.847656 243.777344 202.949219 246.972656 C 202.066406 250.171875 202.042969 253.980469 204.214844 256.421875 C 206.390625 258.882812 209.953125 259.125 213.179688 259.359375 C 213.007812 258.960938 212.910156 258.539062 212.652344 258.121094 C 212.148438 257.277344 212.273438 257.671875 211.476562 258.007812 C 209.230469 258.914062 207.796875 256.667969 207.96875 254.214844 C 208.082031 252.707031 208.378906 251.988281 211.976562 242.894531 C 213.9375 237.851562 213.863281 236.8125 217.507812 233.164062 C 222.402344 228.289062 226.839844 227.652344 233.601562 227.84375 C 244.527344 228.191406 255.445312 229.816406 266.105469 232.730469 L 260.007812 253.71875 C 257.585938 252.460938 256.015625 252.574219 253.9375 252.21875 C 251.421875 251.785156 249.089844 250.742188 246.738281 249.789062 C 245.167969 249.15625 242.125 247.433594 240.457031 247.992188 C 238.65625 248.597656 237.195312 250.964844 235.109375 251.636719 C 234.667969 251.773438 229.527344 252.464844 229.527344 251.773438 C 229.234375 253.953125 228.890625 256.285156 227.53125 257.820312 C 226.167969 259.359375 223.445312 259.371094 222.722656 257.339844 C 222.550781 258.453125 221.679688 259.347656 220.699219 259.394531 C 219.742188 259.445312 218.796875 258.628906 218.539062 257.550781 C 218.234375 258.257812 217.730469 259.023438 217.140625 259.621094 C 246.0625 261.707031 262.128906 260.09375 289.53125 259.84375 C 292.054688 256.582031 292.816406 252.367188 294.054688 248.449219 C 298.109375 235.550781 300.941406 222.457031 303.5625 209.125 C 305.632812 198.511719 312.234375 182.582031 302.421875 173.890625 Z M 302.421875 173.890625 " fill-opacity="1" fill-rule="nonzero"/><path fill="#000000" d="M 217.082031 260.546875 L 213.117188 260.285156 C 212.304688 260.234375 212.277344 259.464844 211.964844 258.808594 C 209.324219 260.050781 206.785156 257.761719 207.039062 254.148438 C 207.148438 252.710938 207.664062 251.375 208.117188 250.199219 C 208.167969 250.070312 211.253906 242.199219 211.71875 240.933594 C 213.289062 236.640625 213.902344 235.460938 216.851562 232.507812 C 221.9375 227.441406 226.601562 226.71875 233.628906 226.914062 C 244.691406 227.269531 255.699219 228.921875 266.347656 231.832031 C 266.851562 231.96875 267.140625 232.496094 266.996094 232.988281 L 260.902344 253.976562 C 260.824219 254.246094 260.628906 254.464844 260.375 254.574219 C 259.585938 254.910156 259.414062 254.132812 257.035156 253.609375 C 256.449219 253.488281 255.84375 253.414062 255.234375 253.339844 C 251.527344 252.878906 249.917969 252.070312 246.386719 250.652344 C 245.082031 250.125 241.992188 248.46875 240.753906 248.871094 C 239.246094 249.378906 237.679688 251.785156 235.394531 252.519531 C 235.347656 252.535156 232.21875 253.121094 230.296875 252.984375 C 230.015625 254.863281 229.546875 256.945312 228.226562 258.4375 C 226.84375 260 224.425781 260.324219 222.914062 259.144531 C 221.765625 260.585938 219.855469 260.753906 218.535156 259.40625 C 218.308594 259.71875 218.058594 260.011719 217.800781 260.273438 C 217.621094 260.457031 217.367188 260.5625 217.082031 260.546875 Z M 213.835938 258.46875 L 216.757812 258.660156 C 217.128906 258.222656 217.464844 257.691406 217.6875 257.179688 C 218.054688 256.332031 219.246094 256.492188 219.445312 257.332031 C 219.597656 257.976562 220.183594 258.519531 220.648438 258.46875 C 221.183594 258.441406 221.699219 257.871094 221.804688 257.195312 C 221.949219 256.242188 223.277344 256.125 223.597656 257.027344 C 224.070312 258.351562 225.929688 258.226562 226.832031 257.207031 C 228.042969 255.839844 228.355469 253.515625 228.609375 251.648438 C 228.710938 250.890625 229.660156 250.570312 230.195312 251.121094 C 231.121094 251.257812 234.316406 250.878906 234.851562 250.742188 C 236.589844 250.183594 238.171875 247.78125 240.160156 247.109375 C 242.25 246.414062 245.34375 248.226562 247.085938 248.925781 C 249.476562 249.90625 251.753906 250.898438 254.09375 251.300781 C 255.917969 251.613281 257.304688 251.546875 259.417969 252.417969 L 264.945312 233.382812 C 254.722656 230.660156 244.171875 229.113281 233.570312 228.773438 C 227.039062 228.582031 222.855469 229.152344 218.164062 233.820312 C 215.441406 236.550781 214.960938 237.476562 213.464844 241.574219 C 210.523438 249.617188 209.058594 252.097656 208.894531 254.285156 C 208.761719 256.1875 209.792969 258.054688 211.457031 256.960938 C 211.644531 256.835938 211.988281 256.601562 212.453125 256.710938 C 212.964844 256.828125 213.210938 257.242188 213.449219 257.640625 C 213.628906 257.933594 213.742188 258.210938 213.835938 258.46875 Z M 230.457031 251.769531 C 230.457031 251.769531 230.457031 251.769531 230.457031 251.773438 C 230.457031 251.769531 230.457031 251.769531 230.457031 251.769531 Z M 230.457031 251.769531 " fill-opacity="1" fill-rule="nonzero"/><path fill="#000000" d="M 212.3125 259.691406 C 212.074219 259.070312 212.542969 258.398438 213.242188 258.433594 L 217.203125 258.691406 C 217.996094 258.742188 218.367188 259.710938 217.796875 260.277344 C 215.515625 262.554688 213.035156 261.59375 212.3125 259.691406 Z M 212.3125 259.691406 " fill-opacity="1" fill-rule="nonzero"/><path fill="#000000" d="M 211.933594 258.367188 C 211.445312 258.210938 211.171875 257.691406 211.324219 257.199219 C 212.964844 251.964844 214.871094 246.78125 216.992188 241.78125 C 217.191406 241.308594 217.738281 241.085938 218.210938 241.289062 C 218.683594 241.492188 218.90625 242.035156 218.703125 242.507812 C 216.609375 247.449219 214.722656 252.582031 213.097656 257.757812 C 212.945312 258.25 212.417969 258.519531 211.933594 258.367188 Z M 211.933594 258.367188 " fill-opacity="1" fill-rule="nonzero"/><path fill="#000000" d="M 220.988281 257.984375 C 220.484375 257.886719 220.152344 257.398438 220.25 256.894531 C 220.960938 253.21875 221.84375 248.644531 224.496094 245.375 C 224.820312 244.976562 225.402344 244.914062 225.804688 245.238281 C 226.203125 245.5625 226.265625 246.148438 225.941406 246.546875 C 223.582031 249.457031 222.78125 253.59375 222.078125 257.246094 C 221.976562 257.761719 221.472656 258.082031 220.988281 257.984375 Z M 220.988281 257.984375 " fill-opacity="1" fill-rule="nonzero"/><path fill="#000000" d="M 190.472656 254.703125 C 189.972656 254.589844 189.660156 254.09375 189.773438 253.589844 C 190.40625 250.792969 191.226562 248.019531 192.203125 245.34375 C 192.378906 244.859375 192.914062 244.609375 193.398438 244.789062 C 193.878906 244.964844 194.128906 245.496094 193.953125 245.980469 C 193 248.585938 192.203125 251.285156 191.585938 254.003906 C 191.472656 254.507812 190.972656 254.816406 190.472656 254.703125 Z M 190.472656 254.703125 " fill-opacity="1" fill-rule="nonzero"/><path fill="#000000" d="M 273.179688 264.253906 C 273 263.480469 272.808594 262.722656 272.429688 262.046875 C 270.691406 259.019531 266.511719 259.542969 262.667969 259.542969 L 219.132812 259.542969 C 217.605469 245.484375 215.695312 231.464844 213.445312 217.527344 C 212.324219 210.441406 211.25 204.398438 209.832031 196.769531 C 209.308594 194.019531 209.105469 191.773438 206.613281 190.3125 C 202.84375 188.132812 198.089844 189.367188 193.789062 189.367188 C 171.910156 189.199219 150.886719 189.417969 130.441406 190.015625 C 121.628906 190.269531 119.699219 193.667969 121.015625 201.289062 C 124.253906 220.421875 128.507812 238.554688 133.824219 256.621094 C 134.972656 260.449219 135.238281 264.835938 137.425781 268.230469 C 139.167969 270.9375 141.535156 270.816406 144.285156 270.816406 L 253.890625 270.816406 C 258.292969 270.816406 262.667969 270.707031 267.070312 270.707031 C 268.816406 270.707031 271.042969 271.195312 272.363281 269.734375 C 273.625 268.351562 273.625 266.230469 273.179688 264.253906 Z M 168.953125 241.003906 C 164.703125 240.800781 161.105469 236.929688 160.898438 232.359375 C 160.710938 227.8125 163.964844 224.292969 168.191406 224.46875 L 168.242188 224.46875 C 172.273438 224.65625 175.734375 228.164062 176.230469 232.425781 C 176.269531 232.65625 176.28125 232.886719 176.292969 233.117188 C 176.5 237.675781 173.214844 241.207031 168.953125 241.003906 Z M 168.953125 241.003906 " fill-opacity="1" fill-rule="nonzero"/><path fill="#000000" d="M 267.566406 116.214844 C 264.453125 113.222656 259.863281 112.175781 255.875 113.539062 C 255.386719 113.710938 254.859375 113.449219 254.691406 112.960938 C 254.527344 112.476562 254.785156 111.949219 255.269531 111.78125 C 259.910156 110.1875 265.242188 111.398438 268.855469 114.871094 C 269.226562 115.230469 269.238281 115.816406 268.882812 116.1875 C 268.527344 116.558594 267.9375 116.570312 267.566406 116.214844 Z M 267.566406 116.214844 " fill-opacity="1" fill-rule="nonzero"/><path fill="#000000" d="M 255.648438 155.703125 C 250.363281 155.148438 245.246094 151.945312 241.601562 146.917969 C 235.324219 138.265625 233.816406 125.027344 235.175781 114.28125 C 236.050781 107.339844 238.78125 100.199219 242.664062 94.695312 C 242.957031 94.273438 243.539062 94.171875 243.957031 94.472656 C 244.378906 94.769531 244.476562 95.347656 244.183594 95.769531 C 240.46875 101.03125 237.859375 107.863281 237.019531 114.515625 C 235.71875 124.816406 237.132812 137.597656 243.109375 145.828125 C 246.441406 150.425781 251.082031 153.351562 255.839844 153.851562 C 258.234375 154.105469 260.996094 153.792969 263.816406 152.945312 C 266.621094 152.105469 269.292969 150.628906 271.757812 149.15625 C 272.609375 148.648438 273.3125 147.953125 274.167969 147.265625 C 277.691406 144.433594 280.269531 140.636719 282.046875 135.652344 L 282.152344 135.355469 C 282.378906 134.695312 283.238281 134.507812 283.71875 135.035156 C 284.734375 136.152344 286.523438 136.816406 288.285156 136.703125 C 289.890625 136.609375 291.4375 135.738281 292.425781 134.375 C 294.363281 131.699219 294.410156 126.398438 292.800781 123.679688 C 291.054688 120.71875 287.496094 120.597656 284.800781 122.605469 C 284.390625 122.910156 283.808594 122.824219 283.5 122.410156 C 283.195312 122 283.28125 121.417969 283.691406 121.109375 C 288.683594 117.40625 295.890625 119.523438 295.796875 128.835938 C 295.769531 131.5625 295.144531 133.796875 293.933594 135.464844 C 291.40625 138.957031 286.6875 139.464844 283.441406 137.238281 C 281.558594 142.085938 278.898438 145.847656 275.332031 148.714844 C 274.453125 149.417969 273.726562 150.148438 272.710938 150.753906 C 267.441406 153.898438 261.953125 156.367188 255.648438 155.703125 Z M 255.648438 155.703125 " fill-opacity="1" fill-rule="nonzero"/><path fill="#000000" d="M 289.128906 130.421875 C 288.617188 130.375 288.242188 129.921875 288.289062 129.410156 C 288.355469 128.664062 288.394531 127.875 288.210938 127.175781 C 288.046875 126.546875 287.6875 126.035156 287.273438 125.84375 C 286.96875 125.703125 286.5 125.753906 286.316406 126.0625 C 286.054688 126.503906 285.484375 126.648438 285.042969 126.386719 C 284.601562 126.125 284.457031 125.554688 284.71875 125.113281 C 285.375 124.011719 286.839844 123.589844 288.054688 124.15625 C 288.988281 124.589844 289.703125 125.519531 290.011719 126.710938 C 290.265625 127.683594 290.222656 128.664062 290.140625 129.578125 C 290.09375 130.078125 289.65625 130.464844 289.128906 130.421875 Z M 289.128906 130.421875 " fill-opacity="1" fill-rule="nonzero"/><path fill="#000000" d="M 250.410156 129.753906 C 249.359375 129.609375 246.15625 129.171875 245.492188 126.5625 C 244.941406 124.402344 246.523438 122.734375 247.601562 121.121094 C 248.761719 119.375 249.234375 117.085938 248.894531 114.835938 C 248.820312 114.332031 249.167969 113.855469 249.675781 113.78125 C 250.175781 113.699219 250.65625 114.054688 250.734375 114.5625 C 251.140625 117.261719 250.5625 120.027344 249.148438 122.152344 C 248.273438 123.460938 246.976562 124.851562 247.292969 126.101562 C 247.53125 127.042969 248.636719 127.632812 250.664062 127.910156 C 251.171875 127.980469 251.527344 128.449219 251.460938 128.957031 C 251.390625 129.472656 250.914062 129.824219 250.410156 129.753906 Z M 250.410156 129.753906 " fill-opacity="1" fill-rule="nonzero"/><path fill="#000000" d="M 251.132812 139.875 C 250.679688 139.632812 250.507812 139.070312 250.746094 138.617188 C 250.988281 138.167969 251.550781 137.996094 252.003906 138.234375 C 253.253906 138.894531 254.957031 138.535156 255.882812 137.40625 C 256.207031 137.007812 256.796875 136.949219 257.191406 137.273438 C 257.589844 137.601562 257.648438 138.183594 257.324219 138.582031 C 255.835938 140.402344 253.175781 140.960938 251.132812 139.875 Z M 251.132812 139.875 " fill-opacity="1" fill-rule="nonzero"/><path fill="#000000" d="M 259.078125 116.308594 C 259.3125 116.324219 259.53125 116.429688 259.738281 116.625 C 259.941406 116.824219 260.117188 117.101562 260.265625 117.453125 C 260.414062 117.808594 260.519531 118.210938 260.582031 118.667969 C 260.648438 119.121094 260.667969 119.59375 260.640625 120.082031 C 260.613281 120.566406 260.542969 121.035156 260.429688 121.480469 C 260.316406 121.925781 260.167969 122.316406 259.984375 122.652344 C 259.800781 122.988281 259.59375 123.242188 259.367188 123.417969 C 259.140625 123.59375 258.910156 123.671875 258.675781 123.660156 C 258.441406 123.648438 258.222656 123.542969 258.015625 123.34375 C 257.8125 123.144531 257.636719 122.871094 257.488281 122.515625 C 257.339844 122.164062 257.234375 121.757812 257.171875 121.304688 C 257.105469 120.847656 257.085938 120.375 257.113281 119.890625 C 257.140625 119.402344 257.210938 118.933594 257.324219 118.488281 C 257.4375 118.042969 257.585938 117.652344 257.769531 117.320312 C 257.953125 116.984375 258.160156 116.726562 258.386719 116.554688 C 258.613281 116.378906 258.84375 116.296875 259.078125 116.308594 Z M 259.078125 116.308594 " fill-opacity="1" fill-rule="nonzero"/><path fill="#000000" d="M 242.292969 114.695312 C 242.527344 114.707031 242.746094 114.8125 242.953125 115.011719 C 243.160156 115.210938 243.335938 115.484375 243.480469 115.839844 C 243.628906 116.195312 243.734375 116.597656 243.800781 117.054688 C 243.863281 117.507812 243.882812 117.980469 243.855469 118.46875 C 243.832031 118.953125 243.761719 119.421875 243.648438 119.867188 C 243.53125 120.3125 243.382812 120.703125 243.199219 121.039062 C 243.015625 121.375 242.808594 121.628906 242.582031 121.804688 C 242.359375 121.976562 242.128906 122.058594 241.894531 122.046875 C 241.660156 122.035156 241.441406 121.929688 241.234375 121.730469 C 241.027344 121.53125 240.851562 121.253906 240.703125 120.902344 C 240.558594 120.546875 240.453125 120.144531 240.386719 119.6875 C 240.320312 119.234375 240.304688 118.761719 240.328125 118.273438 C 240.355469 117.789062 240.425781 117.320312 240.539062 116.875 C 240.652344 116.429688 240.804688 116.039062 240.988281 115.703125 C 241.171875 115.367188 241.375 115.113281 241.601562 114.9375 C 241.828125 114.765625 242.058594 114.683594 242.292969 114.695312 Z M 242.292969 114.695312 " fill-opacity="1" fill-rule="nonzero"/><path fill="#000000" d="M 260.539062 172.90625 C 258.917969 172.90625 257.503906 172.746094 256.816406 172.621094 C 254.3125 172.1875 249.140625 170.585938 247.554688 167.652344 C 246.730469 166.132812 247.289062 163.601562 247.324219 162.164062 C 247.425781 158.933594 247.519531 155.609375 247.617188 152.171875 C 247.628906 151.660156 248.070312 151.285156 248.570312 151.269531 C 249.085938 151.285156 249.488281 151.710938 249.476562 152.226562 C 249.386719 155.386719 249.296875 158.621094 249.183594 162.207031 C 249.152344 163.503906 248.710938 165.882812 249.1875 166.765625 C 250.339844 168.890625 254.675781 170.363281 257.140625 170.789062 C 259.832031 171.277344 265.414062 171.226562 266.507812 169.394531 C 267.007812 168.558594 266.761719 165.550781 266.855469 164.347656 L 267.792969 164.246094 L 266.863281 164.203125 C 267.230469 159.484375 267.492188 156.089844 267.742188 153.027344 C 267.785156 152.519531 268.242188 152.140625 268.746094 152.179688 C 269.257812 152.21875 269.636719 152.667969 269.59375 153.179688 C 269.386719 155.707031 269.207031 158.054688 268.722656 164.28125 L 267.785156 164.382812 L 268.710938 164.425781 C 268.601562 165.960938 268.964844 168.90625 268.105469 170.351562 C 266.871094 172.410156 263.390625 172.90625 260.539062 172.90625 Z M 260.539062 172.90625 " fill-opacity="1" fill-rule="nonzero"/><path fill="#000000" d="M 246.480469 112.03125 C 244.023438 111.101562 241.378906 110.917969 238.824219 111.488281 C 238.324219 111.601562 237.828125 111.285156 237.714844 110.785156 C 237.601562 110.285156 237.917969 109.785156 238.417969 109.675781 C 241.324219 109.019531 244.339844 109.234375 247.140625 110.292969 C 247.621094 110.472656 247.863281 111.007812 247.679688 111.488281 C 247.496094 111.972656 246.960938 112.210938 246.480469 112.03125 Z M 246.480469 112.03125 " fill-opacity="1" fill-rule="nonzero"/><g clip-path="url(#7d70622e89)"><path fill="#000000" d="M 27.753906 300.675781 C 27.355469 300.347656 27.300781 299.761719 27.628906 299.367188 L 43.875 279.8125 C 44.203125 279.417969 44.789062 279.363281 45.183594 279.691406 C 45.578125 280.019531 45.632812 280.605469 45.304688 281 L 29.0625 300.554688 C 28.734375 300.949219 28.144531 301.003906 27.753906 300.675781 Z M 27.753906 300.675781 " fill-opacity="1" fill-rule="nonzero"/></g><g clip-path="url(#bc222ce3c4)"><path fill="#000000" d="M 339.914062 301.152344 L 299.300781 268.421875 C 298.902344 268.101562 298.839844 267.515625 299.160156 267.117188 C 299.484375 266.71875 300.066406 266.65625 300.46875 266.976562 L 341.082031 299.707031 C 341.480469 300.027344 341.542969 300.613281 341.222656 301.011719 C 340.898438 301.414062 340.3125 301.472656 339.914062 301.152344 Z M 339.914062 301.152344 " fill-opacity="1" fill-rule="nonzero"/></g><path fill="#000000" d="M 47.410156 281.734375 C 43.464844 281.070312 35.300781 279.296875 31.914062 277.148438 C 29.460938 275.589844 28.980469 273.792969 29.09375 270.789062 C 29.273438 265.550781 29.472656 260.308594 29.671875 255.066406 C 29.6875 254.660156 29.964844 254.3125 30.355469 254.203125 C 30.75 254.097656 31.164062 254.257812 31.382812 254.601562 C 33.332031 257.640625 51.425781 260.925781 77.265625 260.925781 C 102.84375 260.925781 121.667969 257.609375 123.203125 254.515625 C 123.359375 254.199219 123.683594 254 124.035156 254 L 124.386719 254 C 124.898438 254 125.316406 254.414062 125.316406 254.929688 C 124.953125 277.757812 125.078125 269.882812 125.050781 271.585938 C 124.957031 276.554688 121.929688 277.644531 119.261719 278.609375 L 118.980469 278.710938 C 106.625 283.238281 93.054688 283.351562 80.042969 283.523438 C 69.105469 283.617188 57.613281 283.488281 47.410156 281.734375 Z M 31.457031 257.042969 C 30.898438 271.785156 30.792969 272.308594 31.167969 273.53125 C 31.421875 274.371094 31.910156 274.941406 32.910156 275.578125 C 36.03125 277.558594 44.089844 279.289062 47.722656 279.902344 C 59.117188 281.859375 70.136719 281.675781 80.902344 281.652344 C 93.453125 281.488281 106.515625 281.296875 118.339844 276.964844 C 121.433594 275.847656 123.121094 275.1875 123.191406 271.554688 L 123.445312 256.796875 C 111.808594 264.601562 44.441406 264.796875 31.457031 257.042969 Z M 31.457031 257.042969 " fill-opacity="1" fill-rule="nonzero"/><path fill="#000000" d="M 77.265625 262.78125 C 55.96875 262.78125 32.835938 260.316406 29.816406 255.601562 C 29.558594 255.222656 29.414062 254.773438 29.414062 254.324219 C 29.414062 242.6875 131.488281 243.214844 124.851562 255.371094 C 122.445312 260.226562 99.085938 262.78125 77.265625 262.78125 Z M 77.265625 247.730469 C 49.191406 247.730469 31.273438 251.636719 31.273438 254.324219 C 31.273438 254.398438 31.308594 254.484375 31.367188 254.574219 C 33.328125 257.640625 51.425781 260.921875 77.265625 260.921875 C 102.84375 260.921875 121.667969 257.609375 123.203125 254.511719 C 123.246094 254.433594 123.257812 254.378906 123.257812 254.324219 C 123.257812 251.636719 105.339844 247.730469 77.265625 247.730469 Z M 77.265625 247.730469 " fill-opacity="1" fill-rule="nonzero"/><path fill="#000000" d="M 107.328125 271.191406 C 107.328125 271.691406 107.25 272.171875 107.097656 272.636719 C 106.941406 273.097656 106.722656 273.503906 106.433594 273.859375 C 106.148438 274.210938 105.816406 274.484375 105.445312 274.675781 C 105.070312 274.867188 104.679688 274.964844 104.273438 274.964844 C 103.871094 274.964844 103.480469 274.867188 103.105469 274.675781 C 102.734375 274.484375 102.402344 274.210938 102.117188 273.859375 C 101.828125 273.503906 101.609375 273.097656 101.453125 272.636719 C 101.300781 272.171875 101.222656 271.691406 101.222656 271.191406 C 101.222656 270.691406 101.300781 270.210938 101.453125 269.75 C 101.609375 269.285156 101.828125 268.878906 102.117188 268.527344 C 102.402344 268.171875 102.734375 267.898438 103.105469 267.707031 C 103.480469 267.515625 103.871094 267.421875 104.273438 267.421875 C 104.679688 267.421875 105.070312 267.515625 105.445312 267.707031 C 105.816406 267.898438 106.148438 268.171875 106.433594 268.527344 C 106.722656 268.878906 106.941406 269.285156 107.097656 269.75 C 107.25 270.210938 107.328125 270.691406 107.328125 271.191406 Z M 107.328125 271.191406 " fill-opacity="1" fill-rule="nonzero"/><path fill="#000000" d="M 99.5625 271.75 C 99.5625 272.25 99.488281 272.734375 99.332031 273.195312 C 99.175781 273.65625 98.957031 274.066406 98.667969 274.417969 C 98.382812 274.773438 98.054688 275.042969 97.679688 275.234375 C 97.304688 275.425781 96.914062 275.523438 96.511719 275.523438 C 96.105469 275.523438 95.714844 275.425781 95.34375 275.234375 C 94.96875 275.042969 94.636719 274.773438 94.351562 274.417969 C 94.066406 274.066406 93.84375 273.65625 93.691406 273.195312 C 93.535156 272.734375 93.457031 272.25 93.457031 271.75 C 93.457031 271.25 93.535156 270.769531 93.691406 270.308594 C 93.84375 269.847656 94.066406 269.4375 94.351562 269.085938 C 94.636719 268.730469 94.96875 268.457031 95.34375 268.265625 C 95.714844 268.074219 96.105469 267.980469 96.511719 267.980469 C 96.914062 267.980469 97.304688 268.074219 97.679688 268.265625 C 98.054688 268.457031 98.382812 268.730469 98.667969 269.085938 C 98.957031 269.4375 99.175781 269.847656 99.332031 270.308594 C 99.488281 270.769531 99.5625 271.25 99.5625 271.75 Z M 99.5625 271.75 " fill-opacity="1" fill-rule="nonzero"/><path fill="#000000" d="M 90.941406 271.75 C 90.941406 272.25 90.863281 272.734375 90.710938 273.195312 C 90.554688 273.65625 90.332031 274.066406 90.046875 274.417969 C 89.761719 274.773438 89.429688 275.042969 89.058594 275.234375 C 88.683594 275.425781 88.292969 275.523438 87.886719 275.523438 C 87.484375 275.523438 87.09375 275.425781 86.71875 275.234375 C 86.347656 275.042969 86.015625 274.773438 85.730469 274.417969 C 85.441406 274.066406 85.222656 273.65625 85.066406 273.195312 C 84.914062 272.734375 84.835938 272.25 84.835938 271.75 C 84.835938 271.25 84.914062 270.769531 85.066406 270.308594 C 85.222656 269.847656 85.441406 269.4375 85.730469 269.085938 C 86.015625 268.730469 86.347656 268.457031 86.71875 268.265625 C 87.09375 268.074219 87.484375 267.980469 87.886719 267.980469 C 88.292969 267.980469 88.683594 268.074219 89.058594 268.265625 C 89.429688 268.457031 89.761719 268.730469 90.046875 269.085938 C 90.332031 269.4375 90.554688 269.847656 90.710938 270.308594 C 90.863281 270.769531 90.941406 271.25 90.941406 271.75 Z M 90.941406 271.75 " fill-opacity="1" fill-rule="nonzero"/><path fill="#000000" d="M 104.652344 242.894531 C 104.613281 245.152344 104.566406 247.425781 104.527344 249.6875 C 104.480469 252.417969 102.871094 252.894531 101.210938 253.5 C 93.636719 256.265625 84.699219 256.402344 75.96875 256.402344 C 67.921875 256.402344 59.511719 256.277344 51.617188 253.804688 C 50.066406 253.308594 47.933594 252.59375 47.472656 251.046875 C 47.21875 250.203125 47.289062 249.808594 47.570312 242.472656 C 58.039062 244.273438 69.660156 244.339844 80.421875 244.242188 C 88.328125 244.140625 96.574219 244.050781 104.652344 242.894531 Z M 104.652344 242.894531 " fill-opacity="1" fill-rule="nonzero"/><path fill="#000000" d="M 36.816406 240.878906 C 33.867188 239.949219 30.285156 238.679688 29.390625 235.726562 C 28.898438 234.117188 29.019531 233.867188 29.671875 216.71875 C 29.707031 215.8125 30.894531 215.488281 31.382812 216.253906 C 33.332031 219.296875 51.425781 222.582031 77.265625 222.582031 C 102.84375 222.582031 121.667969 219.265625 123.203125 216.171875 C 123.359375 215.851562 123.683594 215.652344 124.035156 215.652344 L 124.386719 215.652344 C 124.898438 215.652344 125.316406 216.070312 125.316406 216.582031 C 124.953125 239.410156 125.078125 231.539062 125.050781 233.242188 C 124.957031 238.210938 121.929688 239.300781 119.261719 240.261719 L 118.980469 240.367188 C 106.757812 244.84375 93.375 245 80.433594 245.171875 C 65.660156 245.300781 50.5625 245.164062 36.816406 240.878906 Z M 31.457031 218.695312 C 30.882812 233.835938 30.808594 234.015625 31.167969 235.183594 C 31.421875 236.023438 31.910156 236.597656 32.910156 237.230469 C 36.019531 239.207031 44.054688 240.9375 47.722656 241.554688 C 59.074219 243.507812 70.820312 243.308594 80.925781 243.308594 C 93.460938 243.140625 106.53125 242.945312 118.339844 238.617188 C 121.441406 237.5 123.121094 236.835938 123.191406 233.207031 L 123.445312 218.453125 C 111.808594 226.257812 44.4375 226.453125 31.457031 218.695312 Z M 31.457031 218.695312 " fill-opacity="1" fill-rule="nonzero"/><path fill="#000000" d="M 77.265625 224.4375 C 55.972656 224.4375 32.835938 221.972656 29.816406 217.253906 C 29.5625 216.878906 29.414062 216.429688 29.414062 215.976562 C 29.414062 210.199219 59.097656 207.6875 77.808594 207.460938 C 78.464844 207.46875 78.8125 207.398438 84.257812 207.585938 C 85.484375 207.625 86.695312 207.667969 87.847656 207.691406 C 88.25 207.699219 88.578125 207.726562 88.847656 207.824219 C 97.621094 208.128906 125.117188 209.601562 125.117188 215.976562 C 125.117188 216.34375 125.027344 216.707031 124.851562 217.023438 C 122.445312 221.882812 99.085938 224.4375 77.265625 224.4375 Z M 77.828125 209.320312 C 50.175781 209.65625 29.75 213.871094 31.367188 216.226562 C 33.332031 219.292969 51.425781 222.578125 77.265625 222.578125 C 102.84375 222.578125 121.667969 219.265625 123.203125 216.167969 C 123.246094 216.089844 123.257812 216.035156 123.257812 215.976562 C 123.257812 213.847656 112.503906 210.488281 88.589844 209.675781 C 88.453125 209.671875 88.316406 209.636719 88.191406 209.570312 C 88.144531 209.566406 85.78125 209.496094 84.191406 209.445312 C 82.226562 209.378906 79.804688 209.292969 77.828125 209.320312 Z M 88.027344 209.460938 Z M 77.820312 208.390625 L 77.832031 208.390625 Z M 77.820312 208.390625 " fill-opacity="1" fill-rule="nonzero"/><path fill="#000000" d="M 107.328125 232.847656 C 107.328125 233.347656 107.25 233.828125 107.097656 234.292969 C 106.941406 234.753906 106.722656 235.160156 106.433594 235.515625 C 106.148438 235.867188 105.816406 236.140625 105.445312 236.332031 C 105.070312 236.523438 104.679688 236.621094 104.273438 236.621094 C 103.871094 236.621094 103.480469 236.523438 103.105469 236.332031 C 102.734375 236.140625 102.402344 235.867188 102.117188 235.515625 C 101.828125 235.160156 101.609375 234.753906 101.453125 234.292969 C 101.300781 233.828125 101.222656 233.347656 101.222656 232.847656 C 101.222656 232.347656 101.300781 231.867188 101.453125 231.40625 C 101.609375 230.941406 101.828125 230.535156 102.117188 230.183594 C 102.402344 229.828125 102.734375 229.554688 103.105469 229.363281 C 103.480469 229.171875 103.871094 229.078125 104.273438 229.078125 C 104.679688 229.078125 105.070312 229.171875 105.445312 229.363281 C 105.816406 229.554688 106.148438 229.828125 106.433594 230.183594 C 106.722656 230.535156 106.941406 230.941406 107.097656 231.40625 C 107.25 231.867188 107.328125 232.347656 107.328125 232.847656 Z M 107.328125 232.847656 " fill-opacity="1" fill-rule="nonzero"/><path fill="#000000" d="M 99.5625 233.40625 C 99.5625 233.90625 99.488281 234.386719 99.332031 234.847656 C 99.175781 235.3125 98.957031 235.71875 98.667969 236.074219 C 98.382812 236.425781 98.054688 236.699219 97.679688 236.890625 C 97.304688 237.082031 96.914062 237.175781 96.511719 237.175781 C 96.105469 237.175781 95.714844 237.082031 95.34375 236.890625 C 94.96875 236.699219 94.636719 236.425781 94.351562 236.074219 C 94.066406 235.71875 93.84375 235.3125 93.691406 234.847656 C 93.535156 234.386719 93.457031 233.90625 93.457031 233.40625 C 93.457031 232.90625 93.535156 232.425781 93.691406 231.964844 C 93.84375 231.5 94.066406 231.09375 94.351562 230.738281 C 94.636719 230.386719 94.96875 230.113281 95.34375 229.921875 C 95.714844 229.730469 96.105469 229.636719 96.511719 229.636719 C 96.914062 229.636719 97.304688 229.730469 97.679688 229.921875 C 98.054688 230.113281 98.382812 230.386719 98.667969 230.738281 C 98.957031 231.09375 99.175781 231.5 99.332031 231.964844 C 99.488281 232.425781 99.5625 232.90625 99.5625 233.40625 Z M 99.5625 233.40625 " fill-opacity="1" fill-rule="nonzero"/><path fill="#000000" d="M 90.941406 233.40625 C 90.941406 233.90625 90.863281 234.386719 90.710938 234.847656 C 90.554688 235.3125 90.332031 235.71875 90.046875 236.074219 C 89.761719 236.425781 89.429688 236.699219 89.058594 236.890625 C 88.683594 237.082031 88.292969 237.175781 87.886719 237.175781 C 87.484375 237.175781 87.09375 237.082031 86.71875 236.890625 C 86.347656 236.699219 86.015625 236.425781 85.730469 236.074219 C 85.441406 235.71875 85.222656 235.3125 85.066406 234.847656 C 84.914062 234.386719 84.835938 233.90625 84.835938 233.40625 C 84.835938 232.90625 84.914062 232.425781 85.066406 231.964844 C 85.222656 231.5 85.441406 231.09375 85.730469 230.738281 C 86.015625 230.386719 86.347656 230.113281 86.71875 229.921875 C 87.09375 229.730469 87.484375 229.636719 87.886719 229.636719 C 88.292969 229.636719 88.683594 229.730469 89.058594 229.921875 C 89.429688 230.113281 89.761719 230.386719 90.046875 230.738281 C 90.332031 231.09375 90.554688 231.5 90.710938 231.964844 C 90.863281 232.425781 90.941406 232.90625 90.941406 233.40625 Z M 90.941406 233.40625 " fill-opacity="1" fill-rule="nonzero"/><path fill="#000000" d="M 46.167969 231.277344 C 42.191406 231.011719 37.679688 230.714844 33.613281 228.957031 C 33.140625 228.753906 32.925781 228.207031 33.128906 227.734375 C 33.328125 227.261719 33.875 227.042969 34.347656 227.25 C 38.125 228.878906 42.460938 229.167969 46.292969 229.421875 C 46.804688 229.457031 47.191406 229.898438 47.15625 230.410156 C 47.125 230.902344 46.707031 231.308594 46.167969 231.277344 Z M 46.167969 231.277344 " fill-opacity="1" fill-rule="nonzero"/><path fill="#000000" d="M 42.507812 270.621094 C 39.0625 270.621094 35.949219 269.265625 32.824219 267.871094 C 32.355469 267.664062 32.144531 267.113281 32.355469 266.644531 C 32.5625 266.175781 33.113281 265.960938 33.582031 266.175781 C 35.394531 266.980469 37.269531 267.816406 39.1875 268.3125 C 41.277344 268.847656 43.167969 268.90625 44.816406 268.484375 C 45.3125 268.359375 45.816406 268.65625 45.945312 269.15625 C 46.074219 269.652344 45.773438 270.160156 45.277344 270.285156 C 44.402344 270.511719 43.480469 270.621094 42.507812 270.621094 Z M 42.507812 270.621094 " fill-opacity="1" fill-rule="nonzero"/><path fill="#000000" d="M 44.96875 143.289062 C 44.964844 143.289062 44.960938 143.289062 44.953125 143.289062 C 44.441406 143.28125 44.03125 142.859375 44.039062 142.347656 L 44.160156 133.738281 C 44.183594 132.128906 45.714844 130.828125 47.574219 130.828125 C 78.574219 131.027344 69.199219 130.96875 99.898438 131.164062 C 101.765625 131.179688 103.285156 132.503906 103.285156 134.113281 L 103.285156 142.238281 C 103.285156 142.75 102.867188 143.167969 102.355469 143.167969 C 101.84375 143.167969 101.425781 142.75 101.425781 142.238281 L 101.425781 134.113281 C 101.425781 133.53125 100.71875 133.03125 99.886719 133.027344 L 47.585938 132.6875 C 46.777344 132.683594 46.03125 133.175781 46.019531 133.765625 L 45.898438 142.375 C 45.890625 142.882812 45.476562 143.289062 44.96875 143.289062 Z M 44.96875 143.289062 " fill-opacity="1" fill-rule="nonzero"/><path fill="#000000" d="M 43 153.742188 L 47.316406 153.742188 C 48.773438 153.742188 49.953125 152.558594 49.953125 151.101562 L 49.953125 144.042969 C 49.953125 142.585938 48.773438 141.402344 47.316406 141.402344 L 43 141.402344 C 41.542969 141.402344 40.363281 142.585938 40.363281 144.042969 L 40.363281 151.101562 C 40.363281 152.558594 41.542969 153.742188 43 153.742188 Z M 43 153.742188 " fill-opacity="1" fill-rule="nonzero"/><path fill="#000000" d="M 98.21875 153.742188 L 104.222656 153.742188 C 105.679688 153.742188 106.859375 152.558594 106.859375 151.101562 L 106.859375 144.042969 C 106.859375 142.585938 105.679688 141.402344 104.222656 141.402344 L 98.21875 141.402344 C 96.761719 141.402344 95.582031 142.585938 95.582031 144.042969 L 95.582031 151.101562 C 95.582031 152.558594 96.761719 153.742188 98.21875 153.742188 Z M 98.21875 153.742188 " fill-opacity="1" fill-rule="nonzero"/><path fill="#000000" d="M 71.503906 150.578125 L 75.820312 150.578125 C 77.277344 150.578125 78.457031 149.394531 78.457031 147.9375 L 78.457031 140.878906 C 78.457031 139.421875 77.277344 138.238281 75.820312 138.238281 L 71.503906 138.238281 C 70.046875 138.238281 68.867188 139.421875 68.867188 140.878906 L 68.867188 147.9375 C 68.867188 149.394531 70.046875 150.578125 71.503906 150.578125 Z M 71.503906 150.578125 " fill-opacity="1" fill-rule="nonzero"/><path fill="#000000" d="M 219.945312 215.675781 C 219.683594 215.675781 219.425781 215.566406 219.242188 215.355469 C 218.90625 214.96875 218.945312 214.378906 219.335938 214.042969 L 229.324219 205.398438 C 229.710938 205.0625 230.296875 205.105469 230.632812 205.492188 C 230.96875 205.882812 230.929688 206.46875 230.539062 206.804688 L 220.550781 215.449219 C 220.375 215.601562 220.160156 215.675781 219.945312 215.675781 Z M 219.945312 215.675781 " fill-opacity="1" fill-rule="nonzero"/><path fill="#000000" d="M 152.28125 298.609375 C 146.214844 298.609375 140.546875 296.335938 136.984375 292.34375 C 136.652344 291.976562 136.332031 291.585938 136.011719 291.195312 C 133.597656 288.25 132.492188 287.425781 128.367188 288.28125 C 124 289.183594 119.789062 290.789062 115.292969 291.535156 C 107.679688 292.796875 98.773438 290.480469 96.054688 282.457031 C 95.203125 279.941406 94.96875 277.0625 95.335938 273.644531 C 95.40625 273.003906 95.484375 272.277344 95.203125 271.910156 C 94.890625 271.503906 94.964844 270.921875 95.371094 270.609375 C 95.777344 270.296875 96.363281 270.371094 96.675781 270.777344 C 97.414062 271.730469 97.28125 272.953125 97.1875 273.847656 C 96.847656 276.984375 97.050781 279.605469 97.816406 281.859375 C 100.183594 288.847656 108.148438 290.835938 114.988281 289.699219 C 122.085938 288.527344 129.363281 284.910156 133.464844 286.5625 C 135.671875 287.453125 136.929688 289.492188 138.371094 291.105469 C 142.160156 295.351562 148.640625 297.429688 155.285156 296.550781 C 160.628906 295.835938 166.101562 293.449219 172.511719 289.03125 L 173.828125 288.117188 C 178.664062 284.746094 184.148438 280.9375 190.246094 281.707031 C 196.070312 282.457031 200.335938 287.125 204.96875 290.195312 C 217.695312 298.625 234.429688 295.261719 243.273438 292.507812 C 245.4375 291.832031 247.675781 291.03125 249.128906 289.359375 C 250.378906 287.921875 250.894531 284.972656 249.683594 283.328125 C 248.207031 281.320312 244.78125 281.03125 243.253906 278.074219 C 242.460938 276.542969 242.46875 274.644531 243.269531 273.117188 C 243.738281 272.226562 244.46875 271.484375 244.855469 270.765625 C 245.589844 269.398438 245.316406 267.546875 244.222656 266.457031 C 243.859375 266.09375 243.859375 265.503906 244.21875 265.140625 C 244.582031 264.777344 245.171875 264.773438 245.535156 265.140625 C 247.214844 266.8125 247.621094 269.546875 246.492188 271.644531 C 246.039062 272.488281 245.277344 273.289062 244.917969 273.980469 C 244.402344 274.964844 244.398438 276.234375 244.90625 277.222656 C 246.082031 279.5 249.394531 279.796875 251.179688 282.226562 C 252.964844 284.652344 252.273438 288.574219 250.535156 290.578125 C 248.761719 292.617188 246.140625 293.558594 243.824219 294.28125 C 228.015625 299.207031 213.851562 298.308594 203.941406 291.742188 C 199.230469 288.621094 195.246094 284.222656 190.007812 283.550781 C 184.15625 282.804688 178.738281 286.957031 173.566406 290.5625 C 166.90625 295.152344 161.175781 297.640625 155.53125 298.394531 C 154.445312 298.539062 153.355469 298.609375 152.28125 298.609375 Z M 152.28125 298.609375 " fill-opacity="1" fill-rule="nonzero"/><path fill="#000000" d="M 76.082031 172.550781 L 79.546875 172.550781 C 80.527344 172.550781 81.320312 171.757812 81.320312 170.777344 L 81.320312 167.234375 C 81.320312 166.253906 80.527344 165.460938 79.546875 165.460938 L 76.082031 165.460938 C 75.101562 165.460938 74.308594 166.253906 74.308594 167.234375 L 74.308594 170.777344 C 74.308594 171.757812 75.101562 172.550781 76.082031 172.550781 Z M 76.082031 172.550781 " fill-opacity="1" fill-rule="nonzero"/><path fill="#000000" d="M 77.867188 215.773438 C 77.355469 215.773438 76.9375 215.355469 76.9375 214.84375 L 76.9375 169.097656 C 76.9375 168.582031 77.355469 168.167969 77.867188 168.167969 C 78.378906 168.167969 78.796875 168.582031 78.796875 169.097656 L 78.796875 214.84375 C 78.796875 215.355469 78.378906 215.773438 77.867188 215.773438 Z M 77.867188 215.773438 " fill-opacity="1" fill-rule="nonzero"/><path fill="#000000" d="M 51.714844 108.53125 L 49.605469 94.324219 C 49.085938 90.816406 51.492188 87.535156 54.964844 87.007812 L 135.761719 74.761719 C 139.207031 74.242188 142.488281 76.613281 143.011719 80.171875 L 145.472656 96.738281 C 145.546875 97.246094 145.195312 97.71875 144.6875 97.792969 C 144.183594 97.855469 143.707031 97.519531 143.632812 97.011719 L 141.175781 80.445312 C 140.808594 77.972656 138.539062 76.222656 136.039062 76.597656 L 55.242188 88.847656 C 52.78125 89.21875 51.078125 91.554688 51.445312 94.050781 L 53.554688 108.257812 C 53.628906 108.765625 53.277344 109.238281 52.769531 109.3125 C 52.226562 109.386719 51.785156 109.011719 51.714844 108.53125 Z M 51.714844 108.53125 " fill-opacity="1" fill-rule="nonzero"/><path fill="#000000" d="M 92.195312 110.375 C 92.121094 109.867188 92.46875 109.394531 92.976562 109.316406 L 131.648438 103.457031 C 132.15625 103.378906 132.628906 103.726562 132.707031 104.234375 C 132.785156 104.742188 132.433594 105.21875 131.925781 105.292969 L 93.253906 111.15625 C 92.75 111.234375 92.273438 110.882812 92.195312 110.375 Z M 92.195312 110.375 " fill-opacity="1" fill-rule="nonzero"/><path fill="#000000" d="M 82.632812 106.183594 L 80.539062 106.539062 C 79.738281 106.679688 78.964844 106.792969 78.863281 105.964844 C 78.695312 104.605469 81.019531 104.628906 81.34375 104.53125 C 81.097656 102.5 80.742188 103.242188 80.597656 97.832031 C 80.542969 96.105469 80.460938 94.804688 80.347656 93.925781 C 79.488281 94.785156 78.925781 95.234375 78.664062 95.28125 C 78.082031 95.382812 77.558594 94.980469 77.496094 94.472656 C 77.460938 94.160156 77.714844 93.726562 78.269531 93.175781 C 79.894531 91.695312 80.289062 90.667969 81.40625 90.472656 C 82.507812 90.28125 82.148438 91.660156 82.25 92.511719 C 82.433594 94.035156 82.691406 94.027344 82.722656 97.941406 C 82.761719 102.398438 83.121094 102.175781 83.398438 104.109375 L 84.507812 103.898438 C 85.484375 103.722656 85.976562 104.75 85.441406 105.417969 C 85.023438 105.9375 84.539062 105.785156 82.632812 106.183594 Z M 82.632812 106.183594 " fill-opacity="1" fill-rule="nonzero"/><path fill="#000000" d="M 92.382812 104.484375 L 90.289062 104.839844 C 89.488281 104.976562 88.710938 105.09375 88.609375 104.261719 C 88.445312 102.90625 90.765625 102.925781 91.09375 102.828125 C 90.992188 102.003906 90.667969 100.855469 90.570312 100.03125 C 90.300781 97.816406 90.398438 94.550781 90.09375 92.222656 C 89.234375 93.082031 88.675781 93.535156 88.414062 93.578125 C 87.828125 93.683594 87.308594 93.277344 87.246094 92.773438 C 87.207031 92.460938 87.464844 92.027344 88.019531 91.472656 C 89.652344 89.980469 90.042969 88.964844 91.152344 88.773438 C 92.257812 88.582031 91.894531 89.964844 91.996094 90.808594 C 92.066406 91.386719 92.234375 92.160156 92.3125 92.796875 C 92.554688 94.800781 92.390625 97.707031 92.628906 99.671875 C 92.75 100.667969 93 101.402344 93.148438 102.410156 L 94.253906 102.195312 C 95.261719 102.019531 95.707031 103.074219 95.1875 103.71875 C 94.773438 104.234375 94.277344 104.085938 92.382812 104.484375 Z M 92.382812 104.484375 " fill-opacity="1" fill-rule="nonzero"/><path fill="#000000" d="M 103.296875 102.964844 C 98.925781 103.726562 97.003906 100.058594 96.46875 95.636719 C 96 91.78125 97.703125 87.671875 101.6875 86.976562 C 105.402344 86.328125 107.761719 89.222656 108.214844 92.953125 C 108.796875 97.738281 108.023438 102.140625 103.296875 102.964844 Z M 101.914062 88.90625 C 99.210938 89.378906 98.1875 92.519531 98.5 95.117188 C 98.882812 98.261719 99.933594 101.59375 103.066406 101.046875 C 106.171875 100.503906 106.523438 96.816406 106.144531 93.691406 C 105.796875 90.84375 104.753906 88.410156 101.914062 88.90625 Z M 101.914062 88.90625 " fill-opacity="1" fill-rule="nonzero"/><path fill="#000000" d="M 49.039062 120.574219 L 95.347656 120.574219 C 98.589844 120.574219 101.222656 117.945312 101.222656 114.699219 C 101.222656 111.453125 98.589844 108.824219 95.347656 108.824219 L 49.039062 108.824219 C 45.796875 108.824219 43.167969 111.453125 43.167969 114.699219 C 43.167969 117.945312 45.796875 120.574219 49.039062 120.574219 Z M 49.039062 120.574219 " fill-opacity="1" fill-rule="nonzero"/><path fill="#000000" d="M 136.039062 114.195312 C 133.167969 111.300781 131.980469 106.796875 132.898438 102.746094 C 131.011719 103.175781 129.167969 103.199219 127.667969 101.988281 C 125.429688 100.1875 125.542969 96.613281 127.050781 94.40625 C 128.269531 92.621094 130.277344 91.371094 133.191406 90.585938 C 135.289062 90.023438 137.007812 89.875 138.59375 90.128906 C 142.542969 90.761719 145.121094 93.703125 144.910156 98.753906 C 144.757812 102.429688 143.167969 106.171875 144.308594 113.023438 C 144.390625 113.527344 144.046875 114.007812 143.542969 114.089844 C 143.035156 114.171875 142.558594 113.832031 142.472656 113.328125 C 141.953125 110.195312 141.90625 107.027344 142.339844 103.910156 C 142.765625 100.792969 143.886719 96.832031 141.996094 94.132812 C 141.210938 93.003906 139.859375 92.214844 138.300781 91.964844 C 136.980469 91.757812 135.511719 91.890625 133.671875 92.382812 C 131.207031 93.046875 129.542969 94.050781 128.585938 95.453125 C 127.570312 96.941406 127.460938 99.433594 128.835938 100.539062 C 130.089844 101.554688 132.058594 101.125 133.996094 100.511719 C 134.339844 100.402344 134.710938 100.503906 134.957031 100.761719 C 135.203125 101.023438 135.273438 101.402344 135.144531 101.738281 C 133.695312 105.441406 134.625 110.132812 137.359375 112.886719 C 137.71875 113.25 137.71875 113.839844 137.355469 114.199219 C 136.988281 114.5625 136.398438 114.558594 136.039062 114.195312 Z M 136.039062 114.195312 " fill-opacity="1" fill-rule="nonzero"/><path fill="#000000" d="M 293.421875 168.792969 C 310.617188 175.003906 320.65625 189.171875 328.421875 203.65625 C 333.757812 213.609375 340.3125 223.296875 343.207031 234.152344 C 345.296875 241.988281 347.753906 252.867188 342.914062 260.007812 C 335.640625 270.730469 326.558594 273.640625 315.476562 272.523438 C 312.4375 272.214844 309.460938 271.96875 306.507812 271.167969 C 279.847656 263.949219 285.433594 264.847656 239.601562 252.558594 C 237.308594 251.941406 236.636719 248.945312 237.933594 246.820312 L 245.605469 218.835938 C 245.429688 218.191406 245.957031 217.4375 246.539062 217.167969 C 247.609375 216.667969 249.195312 217.144531 253.28125 217.4375 L 295.816406 224.433594 L 287.703125 210.441406 " fill-opacity="1" fill-rule="nonzero"/><path fill="#000000" d="M 294.109375 267.875 L 255.925781 259.050781 L 239.691406 254.398438 C 237.753906 253.847656 236.613281 251.808594 237.09375 249.765625 L 244.277344 219.195312 C 244.734375 217.246094 246.5 215.996094 248.40625 216.308594 L 329.921875 229.417969 C 330.429688 229.5 330.773438 229.976562 330.695312 230.484375 C 330.613281 230.988281 330.132812 231.335938 329.628906 231.253906 L 248.109375 218.144531 C 247.1875 217.996094 246.320312 218.628906 246.089844 219.621094 L 238.902344 250.191406 C 238.65625 251.25 239.238281 252.335938 240.203125 252.613281 L 256.390625 257.25 L 294.53125 266.0625 C 295.03125 266.175781 295.34375 266.679688 295.226562 267.179688 C 295.109375 267.683594 294.597656 267.992188 294.109375 267.875 Z M 294.109375 267.875 " fill-opacity="1" fill-rule="nonzero"/><path fill="#000000" d="M 296.835938 224.921875 L 288.972656 211.71875 C 288.707031 211.28125 288.851562 210.707031 289.292969 210.445312 C 289.734375 210.183594 290.304688 210.328125 290.566406 210.769531 L 298.433594 223.96875 C 298.695312 224.410156 298.550781 224.980469 298.109375 225.242188 C 297.667969 225.507812 297.097656 225.359375 296.835938 224.921875 Z M 296.835938 224.921875 " fill-opacity="1" fill-rule="nonzero"/></svg>