<svg xmlns="http://www.w3.org/2000/svg" xmlns:xlink="http://www.w3.org/1999/xlink" width="500" zoomAndPan="magnify" viewBox="0 0 375 374.999991" height="500" preserveAspectRatio="xMidYMid meet" version="1.0"><defs><g/><clipPath id="0c8e146eeb"><path d="M 226.402344 128.816406 L 255.089844 128.816406 L 255.089844 160.210938 L 226.402344 160.210938 Z M 226.402344 128.816406 " clip-rule="nonzero"/></clipPath><clipPath id="8a17e4ceed"><path d="M 97.503906 128.816406 L 210 128.816406 L 210 160.210938 L 97.503906 160.210938 Z M 97.503906 128.816406 " clip-rule="nonzero"/></clipPath><clipPath id="a5e61865cc"><path d="M 271.589844 128.816406 L 285.410156 128.816406 L 285.410156 160.210938 L 271.589844 160.210938 Z M 271.589844 128.816406 " clip-rule="nonzero"/></clipPath><clipPath id="7093d591a4"><path d="M 97.503906 143 L 237 143 L 237 245.246094 L 97.503906 245.246094 Z M 97.503906 143 " clip-rule="nonzero"/></clipPath></defs><g clip-path="url(#0c8e146eeb)"><path fill="#ffffff" d="M 226.402344 128.816406 L 255.089844 128.816406 L 255.089844 160.195312 L 226.402344 160.195312 Z M 226.402344 128.816406 " fill-opacity="1" fill-rule="nonzero"/></g><g clip-path="url(#8a17e4ceed)"><path fill="#ffffff" d="M 97.503906 128.816406 L 209.953125 128.816406 L 209.953125 160.210938 L 97.503906 160.210938 Z M 97.503906 128.816406 " fill-opacity="1" fill-rule="nonzero"/></g><g clip-path="url(#a5e61865cc)"><path fill="#ffffff" d="M 271.589844 128.816406 L 285.410156 128.816406 L 285.410156 160.234375 L 271.589844 160.234375 Z M 271.589844 128.816406 " fill-opacity="1" fill-rule="nonzero"/></g><path fill="#000000" d="M 191.554688 87 C 191.207031 88.90625 192.597656 90.636719 194.503906 90.980469 C 194.679688 90.980469 194.851562 90.980469 195.027344 90.980469 C 196.761719 90.980469 198.148438 89.769531 198.496094 88.039062 C 198.84375 86.136719 197.453125 84.40625 195.546875 84.058594 C 193.636719 83.714844 191.902344 85.097656 191.554688 87 Z M 191.554688 87 " fill-opacity="1" fill-rule="nonzero"/><path fill="#000000" d="M 219.144531 90.980469 C 218.796875 92.886719 220.1875 94.617188 222.09375 94.960938 C 222.269531 94.960938 222.441406 94.960938 222.617188 94.960938 C 224.351562 94.960938 225.738281 93.75 226.085938 92.019531 C 226.433594 90.117188 225.046875 88.386719 223.136719 88.039062 C 221.226562 87.867188 219.320312 89.078125 219.144531 90.980469 Z M 219.144531 90.980469 " fill-opacity="1" fill-rule="nonzero"/><path fill="#000000" d="M 205.4375 88.90625 C 205.089844 90.808594 206.476562 92.539062 208.386719 92.886719 C 208.558594 92.886719 208.734375 92.886719 208.90625 92.886719 C 210.644531 92.886719 212.03125 91.675781 212.378906 89.945312 C 212.726562 88.039062 211.335938 86.308594 209.429688 85.964844 C 207.347656 85.789062 205.609375 87.175781 205.4375 88.90625 Z M 205.4375 88.90625 " fill-opacity="1" fill-rule="nonzero"/><path fill="#000000" d="M 233.027344 93.40625 C 231.464844 94.441406 230.945312 96.519531 231.988281 98.25 C 232.679688 99.289062 233.722656 99.808594 234.9375 99.808594 C 235.628906 99.808594 236.152344 99.636719 236.84375 99.289062 C 238.40625 98.25 238.925781 96.175781 237.886719 94.441406 C 236.84375 92.886719 234.761719 92.539062 233.027344 93.40625 Z M 233.027344 93.40625 " fill-opacity="1" fill-rule="nonzero"/><path fill="#000000" d="M 117.460938 117.980469 C 117.980469 116.078125 116.765625 114.34375 114.855469 113.828125 C 112.949219 113.480469 111.039062 114.519531 110.691406 116.421875 C 110.34375 118.324219 111.386719 120.230469 113.296875 120.574219 C 113.46875 120.574219 113.816406 120.75 113.988281 120.75 C 115.726562 120.75 117.113281 119.710938 117.460938 117.980469 Z M 117.460938 117.980469 " fill-opacity="1" fill-rule="nonzero"/><path fill="#000000" d="M 123.707031 90.980469 C 124.226562 89.078125 123.011719 87.347656 121.105469 86.828125 C 119.195312 86.308594 117.460938 87.519531 116.9375 89.425781 C 116.417969 91.328125 117.632812 93.058594 119.542969 93.578125 C 119.714844 93.578125 120.0625 93.578125 120.410156 93.578125 C 121.972656 93.75 123.359375 92.710938 123.707031 90.980469 Z M 123.707031 90.980469 " fill-opacity="1" fill-rule="nonzero"/><path fill="#000000" d="M 120.582031 104.480469 C 120.929688 102.578125 119.890625 100.847656 117.980469 100.328125 C 116.070312 99.808594 114.164062 101.019531 113.816406 102.921875 C 113.46875 104.828125 114.511719 106.558594 116.417969 107.078125 C 116.765625 107.078125 116.9375 107.25 117.285156 107.25 C 118.847656 107.25 120.238281 106.210938 120.582031 104.480469 Z M 120.582031 104.480469 " fill-opacity="1" fill-rule="nonzero"/><path fill="#000000" d="M 111.734375 127.324219 C 109.824219 126.980469 107.917969 128.019531 107.570312 129.921875 C 107.046875 131.824219 108.261719 133.554688 110.171875 134.074219 C 110.34375 134.074219 110.691406 134.074219 111.039062 134.074219 C 112.601562 134.074219 113.988281 133.035156 114.335938 131.480469 C 114.855469 129.75 113.640625 127.84375 111.734375 127.324219 Z M 111.734375 127.324219 " fill-opacity="1" fill-rule="nonzero"/><path fill="#000000" d="M 127.003906 82.5 C 127.523438 82.5 128.046875 82.328125 128.390625 82.15625 C 130.128906 81.289062 130.820312 79.214844 130.128906 77.484375 C 129.257812 75.753906 127.351562 75.058594 125.441406 75.753906 C 123.707031 76.617188 123.011719 78.695312 123.707031 80.425781 C 124.402344 81.808594 125.617188 82.5 127.003906 82.5 Z M 127.003906 82.5 " fill-opacity="1" fill-rule="nonzero"/><path fill="#000000" d="M 167.089844 86.828125 C 167.261719 86.828125 167.433594 86.828125 167.609375 86.828125 C 169.34375 86.828125 170.730469 85.617188 171.078125 83.886719 C 171.425781 81.984375 170.039062 80.253906 168.128906 79.90625 C 166.21875 79.558594 164.484375 80.945312 164.136719 82.847656 C 163.964844 84.75 165.179688 86.480469 167.089844 86.828125 Z M 167.089844 86.828125 " fill-opacity="1" fill-rule="nonzero"/><path fill="#000000" d="M 181.835938 81.984375 C 179.929688 81.636719 178.195312 83.019531 177.847656 84.925781 C 177.5 86.828125 178.886719 88.558594 180.796875 88.90625 C 180.96875 88.90625 181.144531 88.90625 181.316406 88.90625 C 183.050781 88.90625 184.441406 87.695312 184.789062 85.964844 C 185.132812 84.058594 183.746094 82.328125 181.835938 81.984375 Z M 181.835938 81.984375 " fill-opacity="1" fill-rule="nonzero"/><path fill="#000000" d="M 150.429688 80.769531 C 150.082031 82.675781 151.472656 84.40625 153.378906 84.75 C 153.554688 84.75 153.726562 84.75 153.898438 84.75 C 155.636719 84.75 157.023438 83.539062 157.371094 81.808594 C 157.71875 79.90625 156.328125 78.175781 154.421875 77.828125 C 152.511719 77.65625 150.777344 78.867188 150.429688 80.769531 Z M 150.429688 80.769531 " fill-opacity="1" fill-rule="nonzero"/><path fill="#000000" d="M 136.722656 78.695312 C 136.375 80.597656 137.761719 82.328125 139.671875 82.675781 C 139.84375 82.675781 140.019531 82.675781 140.191406 82.675781 C 141.925781 82.675781 143.316406 81.464844 143.664062 79.734375 C 144.007812 77.828125 142.621094 76.097656 140.710938 75.753906 C 138.804688 75.578125 137.066406 76.789062 136.722656 78.695312 Z M 136.722656 78.695312 " fill-opacity="1" fill-rule="nonzero"/><path fill="#000000" d="M 183.746094 114.519531 C 182.878906 112.789062 180.621094 112.269531 179.0625 113.132812 L 173.335938 116.421875 L 170.039062 110.710938 C 168.996094 108.980469 166.914062 108.460938 165.351562 109.5 C 163.617188 110.539062 163.097656 112.613281 164.136719 114.171875 L 167.433594 119.710938 L 161.707031 123 C 159.972656 123.863281 159.453125 126.113281 160.320312 127.671875 C 161.015625 128.882812 162.054688 129.402344 163.269531 129.402344 C 163.792969 129.402344 164.484375 129.230469 165.003906 128.882812 L 170.730469 125.59375 L 174.027344 131.304688 C 174.722656 132.34375 175.765625 133.035156 176.980469 133.035156 C 177.5 133.035156 178.195312 132.863281 178.714844 132.515625 C 180.449219 131.480469 180.96875 129.402344 179.929688 127.84375 L 176.980469 122.304688 L 182.53125 119.191406 C 184.09375 118.324219 184.789062 116.078125 183.746094 114.519531 Z M 183.746094 114.519531 " fill-opacity="1" fill-rule="nonzero"/><path fill="#000000" d="M 295.671875 186.511719 C 293.414062 184.261719 290.289062 182.878906 286.992188 182.878906 C 284.910156 182.878906 282.828125 183.398438 281.09375 184.4375 L 278.664062 182.015625 C 292.546875 165.746094 291.679688 141.171875 276.410156 125.769531 C 268.601562 117.980469 258.015625 113.652344 246.910156 113.652344 C 235.804688 113.652344 225.390625 117.980469 217.410156 125.769531 C 201.097656 142.035156 201.097656 168.339844 217.410156 184.4375 C 225.21875 192.222656 235.804688 196.550781 246.910156 196.550781 C 256.800781 196.550781 266.34375 193.089844 273.804688 186.6875 L 276.234375 189.109375 C 273.632812 193.78125 274.328125 199.839844 278.316406 203.648438 L 298.792969 224.066406 C 301.050781 226.316406 304.171875 227.703125 307.46875 227.703125 C 310.765625 227.703125 313.890625 226.492188 316.144531 224.066406 C 321.003906 219.222656 321.003906 211.433594 316.144531 206.589844 Z M 271.203125 179.589844 C 264.433594 186.339844 255.585938 189.800781 246.734375 189.800781 C 237.886719 189.800781 229.035156 186.339844 222.269531 179.589844 C 208.734375 166.09375 208.734375 144.113281 222.269531 130.613281 C 229.035156 124.039062 237.886719 120.574219 246.734375 120.574219 C 255.585938 120.574219 264.433594 124.039062 271.203125 130.785156 C 284.910156 144.285156 284.910156 166.09375 271.203125 179.589844 Z M 311.113281 219.394531 C 310.074219 220.433594 308.683594 220.953125 307.296875 220.953125 C 305.90625 220.953125 304.519531 220.433594 303.480469 219.394531 L 283.003906 198.972656 C 280.921875 196.898438 280.921875 193.4375 283.003906 191.359375 C 284.042969 190.320312 285.433594 189.800781 286.820312 189.800781 C 288.207031 189.800781 289.597656 190.320312 290.636719 191.359375 L 311.113281 211.78125 C 313.195312 213.859375 313.195312 217.320312 311.113281 219.394531 Z M 311.113281 219.394531 " fill-opacity="1" fill-rule="nonzero"/><path fill="#000000" d="M 246.734375 130.960938 C 239.101562 130.960938 232.855469 137.191406 232.855469 144.804688 C 232.855469 146.707031 234.414062 148.265625 236.324219 148.265625 C 238.234375 148.265625 239.796875 146.707031 239.796875 144.804688 C 239.796875 140.996094 242.917969 137.882812 246.734375 137.882812 C 250.554688 137.882812 253.675781 140.996094 253.675781 144.804688 C 253.675781 148.613281 250.554688 151.726562 246.734375 151.726562 C 244.828125 151.726562 243.265625 153.285156 243.265625 155.1875 L 243.265625 162.113281 C 243.265625 164.015625 244.828125 165.574219 246.734375 165.574219 C 248.644531 165.574219 250.207031 164.015625 250.207031 162.113281 L 250.207031 158.132812 C 256.105469 156.574219 260.617188 151.207031 260.617188 144.804688 C 260.617188 137.191406 254.371094 130.960938 246.734375 130.960938 Z M 246.734375 130.960938 " fill-opacity="1" fill-rule="nonzero"/><path fill="#000000" d="M 246.734375 169.035156 C 244.828125 169.035156 243.265625 170.589844 243.265625 172.496094 L 243.265625 175.957031 C 243.265625 177.859375 244.828125 179.417969 246.734375 179.417969 C 248.644531 179.417969 250.207031 177.859375 250.207031 175.957031 L 250.207031 172.496094 C 250.207031 170.589844 248.644531 169.035156 246.734375 169.035156 Z M 246.734375 169.035156 " fill-opacity="1" fill-rule="nonzero"/><g clip-path="url(#7093d591a4)"><path fill="#000000" d="M 111.386719 245.183594 L 222.441406 245.183594 C 230.078125 245.183594 236.324219 238.953125 236.324219 231.335938 L 236.324219 202.609375 C 233.894531 202.089844 231.640625 201.398438 229.382812 200.53125 L 229.382812 231.335938 C 229.382812 235.144531 226.261719 238.257812 222.441406 238.257812 L 111.386719 238.257812 C 107.570312 238.257812 104.445312 235.144531 104.445312 231.335938 L 104.445312 227.875 L 194.679688 227.875 C 196.585938 227.875 198.148438 226.316406 198.148438 224.414062 C 198.148438 222.511719 196.585938 220.953125 194.679688 220.953125 L 104.445312 220.953125 L 104.445312 151.726562 C 104.445312 150.6875 105.140625 149.996094 106.179688 149.996094 L 132.730469 149.996094 C 133.25 149.996094 133.597656 150.171875 133.945312 150.515625 L 143.488281 160.726562 C 144.875 162.113281 146.960938 162.285156 148.347656 160.898438 C 149.214844 160.378906 149.5625 159.515625 149.5625 158.648438 L 198.324219 158.648438 C 198.148438 156.398438 198.148438 153.976562 198.324219 151.726562 L 144.53125 151.726562 L 139.152344 145.84375 C 137.589844 144.113281 135.160156 143.074219 132.730469 143.074219 L 106.179688 143.074219 C 101.320312 143.074219 97.503906 146.882812 97.503906 151.726562 L 97.503906 231.335938 C 97.503906 238.953125 103.75 245.183594 111.386719 245.183594 Z M 111.386719 245.183594 " fill-opacity="1" fill-rule="nonzero"/></g><g fill="#000000" fill-opacity="1"><g transform="translate(73.231128, 304.51413)"><g><path d="M 7.671875 0 L 3.65625 -12.265625 C 3.707031 -11.929688 3.765625 -11.53125 3.828125 -11.0625 C 3.890625 -10.601562 3.953125 -10.085938 4.015625 -9.515625 C 4.078125 -8.953125 4.125 -8.347656 4.15625 -7.703125 C 4.195312 -7.066406 4.21875 -6.414062 4.21875 -5.75 L 4.21875 0 L 1.140625 0 L 1.140625 -15.25 L 5.640625 -15.25 L 9.53125 -3.046875 C 9.457031 -3.503906 9.375 -4.054688 9.28125 -4.703125 C 9.195312 -5.347656 9.125 -6.066406 9.0625 -6.859375 C 9.007812 -7.648438 8.984375 -8.5 8.984375 -9.40625 L 8.984375 -15.25 L 12.0625 -15.25 L 12.0625 0 Z M 7.671875 0 "/></g></g></g><g fill="#000000" fill-opacity="1"><g transform="translate(86.428888, 304.51413)"><g><path d="M 12.703125 -7.640625 C 12.703125 -6.023438 12.46875 -4.613281 12 -3.40625 C 11.539062 -2.207031 10.859375 -1.273438 9.953125 -0.609375 C 9.054688 0.046875 7.9375 0.375 6.59375 0.375 C 5.269531 0.375 4.148438 0.0507812 3.234375 -0.59375 C 2.328125 -1.25 1.644531 -2.171875 1.1875 -3.359375 C 0.726562 -4.554688 0.5 -5.984375 0.5 -7.640625 C 0.5 -9.242188 0.726562 -10.644531 1.1875 -11.84375 C 1.644531 -13.039062 2.328125 -13.96875 3.234375 -14.625 C 4.148438 -15.289062 5.269531 -15.625 6.59375 -15.625 C 7.9375 -15.625 9.054688 -15.300781 9.953125 -14.65625 C 10.859375 -14.007812 11.539062 -13.085938 12 -11.890625 C 12.46875 -10.703125 12.703125 -9.285156 12.703125 -7.640625 Z M 9.015625 -7.640625 C 9.015625 -9.515625 8.828125 -10.875 8.453125 -11.71875 C 8.078125 -12.570312 7.457031 -13 6.59375 -13 C 5.738281 -13 5.125 -12.570312 4.75 -11.71875 C 4.375 -10.863281 4.1875 -9.503906 4.1875 -7.640625 C 4.1875 -5.753906 4.375 -4.382812 4.75 -3.53125 C 5.132812 -2.6875 5.75 -2.265625 6.59375 -2.265625 C 7.476562 -2.265625 8.101562 -2.691406 8.46875 -3.546875 C 8.832031 -4.410156 9.015625 -5.773438 9.015625 -7.640625 Z M 9.015625 -7.640625 "/></g></g></g><g fill="#000000" fill-opacity="1"><g transform="translate(99.626648, 304.51413)"><g/></g></g><g fill="#000000" fill-opacity="1"><g transform="translate(112.824409, 304.51413)"><g><path d="M 8.90625 -7.703125 C 8.90625 -8.722656 8.816406 -9.554688 8.640625 -10.203125 C 8.460938 -10.847656 8.222656 -11.347656 7.921875 -11.703125 C 7.617188 -12.054688 7.257812 -12.296875 6.84375 -12.421875 C 6.4375 -12.554688 5.992188 -12.625 5.515625 -12.625 L 4.75 -12.625 L 4.75 -2.609375 L 5.515625 -2.609375 C 6.015625 -2.609375 6.472656 -2.6875 6.890625 -2.84375 C 7.304688 -3 7.664062 -3.265625 7.96875 -3.640625 C 8.269531 -4.023438 8.5 -4.546875 8.65625 -5.203125 C 8.820312 -5.859375 8.90625 -6.691406 8.90625 -7.703125 Z M 12.640625 -7.703125 C 12.640625 -6.148438 12.4375 -4.867188 12.03125 -3.859375 C 11.625 -2.859375 11.070312 -2.078125 10.375 -1.515625 C 9.675781 -0.960938 8.882812 -0.570312 8 -0.34375 C 7.113281 -0.113281 6.203125 0 5.265625 0 L 1.140625 0 L 1.140625 -15.25 L 5 -15.25 C 5.96875 -15.25 6.910156 -15.144531 7.828125 -14.9375 C 8.742188 -14.738281 9.5625 -14.367188 10.28125 -13.828125 C 11 -13.296875 11.570312 -12.535156 12 -11.546875 C 12.425781 -10.554688 12.640625 -9.273438 12.640625 -7.703125 Z M 12.640625 -7.703125 "/></g></g></g><g fill="#000000" fill-opacity="1"><g transform="translate(126.022169, 304.51413)"><g><path d="M 8.796875 -3.28125 L 4.328125 -3.28125 L 3.53125 0 L -0.234375 0 L 4.421875 -15.25 L 8.796875 -15.25 L 13.46875 0 L 9.609375 0 Z M 4.90625 -5.90625 L 8.203125 -5.90625 L 6.5625 -12.65625 Z M 4.90625 -5.90625 "/></g></g></g><g fill="#000000" fill-opacity="1"><g transform="translate(139.21993, 304.51413)"><g><path d="M 8.375 -12.484375 L 8.375 0 L 4.78125 0 L 4.78125 -12.484375 L 0.5 -12.484375 L 0.5 -15.25 L 12.84375 -15.25 L 12.46875 -12.484375 Z M 8.375 -12.484375 "/></g></g></g><g fill="#000000" fill-opacity="1"><g transform="translate(152.41769, 304.51413)"><g><path d="M 8.796875 -3.28125 L 4.328125 -3.28125 L 3.53125 0 L -0.234375 0 L 4.421875 -15.25 L 8.796875 -15.25 L 13.46875 0 L 9.609375 0 Z M 4.90625 -5.90625 L 8.203125 -5.90625 L 6.5625 -12.65625 Z M 4.90625 -5.90625 "/></g></g></g><g fill="#000000" fill-opacity="1"><g transform="translate(165.61545, 304.51413)"><g/></g></g><g fill="#000000" fill-opacity="1"><g transform="translate(178.813211, 304.51413)"><g><path d="M 8.796875 -3.28125 L 4.328125 -3.28125 L 3.53125 0 L -0.234375 0 L 4.421875 -15.25 L 8.796875 -15.25 L 13.46875 0 L 9.609375 0 Z M 4.90625 -5.90625 L 8.203125 -5.90625 L 6.5625 -12.65625 Z M 4.90625 -5.90625 "/></g></g></g><g fill="#000000" fill-opacity="1"><g transform="translate(192.010971, 304.51413)"><g><path d="M 6.671875 -2.8125 L 9.53125 -15.25 L 13.234375 -15.25 L 8.828125 0 L 4.359375 0 L -0.015625 -15.25 L 3.8125 -15.25 Z M 6.671875 -2.8125 "/></g></g></g><g fill="#000000" fill-opacity="1"><g transform="translate(205.208732, 304.51413)"><g><path d="M 8.796875 -3.28125 L 4.328125 -3.28125 L 3.53125 0 L -0.234375 0 L 4.421875 -15.25 L 8.796875 -15.25 L 13.46875 0 L 9.609375 0 Z M 4.90625 -5.90625 L 8.203125 -5.90625 L 6.5625 -12.65625 Z M 4.90625 -5.90625 "/></g></g></g><g fill="#000000" fill-opacity="1"><g transform="translate(218.406492, 304.51413)"><g><path d="M 11.546875 -15.25 L 11.546875 -12.609375 L 8.40625 -12.609375 L 8.40625 -2.65625 L 11.546875 -2.65625 L 11.546875 0 L 1.65625 0 L 1.65625 -2.65625 L 4.796875 -2.65625 L 4.796875 -12.609375 L 1.65625 -12.609375 L 1.65625 -15.25 Z M 11.546875 -15.25 "/></g></g></g><g fill="#000000" fill-opacity="1"><g transform="translate(231.604252, 304.51413)"><g><path d="M 2.046875 0 L 2.046875 -15.25 L 5.65625 -15.25 L 5.65625 -2.84375 L 12.265625 -2.84375 L 11.890625 0 Z M 2.046875 0 "/></g></g></g><g fill="#000000" fill-opacity="1"><g transform="translate(244.802013, 304.51413)"><g><path d="M 8.796875 -3.28125 L 4.328125 -3.28125 L 3.53125 0 L -0.234375 0 L 4.421875 -15.25 L 8.796875 -15.25 L 13.46875 0 L 9.609375 0 Z M 4.90625 -5.90625 L 8.203125 -5.90625 L 6.5625 -12.65625 Z M 4.90625 -5.90625 "/></g></g></g><g fill="#000000" fill-opacity="1"><g transform="translate(257.999773, 304.51413)"><g><path d="M 8.84375 -4.609375 C 8.84375 -5.140625 8.738281 -5.5625 8.53125 -5.875 C 8.320312 -6.1875 8.023438 -6.410156 7.640625 -6.546875 C 7.265625 -6.679688 6.828125 -6.75 6.328125 -6.75 L 4.84375 -6.75 L 4.84375 -2.625 L 6.171875 -2.625 C 6.523438 -2.625 6.859375 -2.648438 7.171875 -2.703125 C 7.492188 -2.753906 7.78125 -2.847656 8.03125 -2.984375 C 8.289062 -3.128906 8.488281 -3.332031 8.625 -3.59375 C 8.769531 -3.851562 8.84375 -4.191406 8.84375 -4.609375 Z M 8.265625 -10.984375 C 8.265625 -11.585938 8.078125 -12.019531 7.703125 -12.28125 C 7.328125 -12.550781 6.742188 -12.6875 5.953125 -12.6875 L 4.84375 -12.6875 L 4.84375 -9.15625 L 6.0625 -9.15625 C 6.84375 -9.15625 7.40625 -9.296875 7.75 -9.578125 C 8.09375 -9.867188 8.265625 -10.335938 8.265625 -10.984375 Z M 12.5625 -4.46875 C 12.5625 -3.582031 12.390625 -2.847656 12.046875 -2.265625 C 11.710938 -1.691406 11.253906 -1.238281 10.671875 -0.90625 C 10.085938 -0.582031 9.414062 -0.347656 8.65625 -0.203125 C 7.90625 -0.0664062 7.117188 0 6.296875 0 L 1.234375 0 L 1.234375 -15.25 L 6.0625 -15.25 C 6.84375 -15.25 7.582031 -15.179688 8.28125 -15.046875 C 8.988281 -14.921875 9.613281 -14.707031 10.15625 -14.40625 C 10.695312 -14.113281 11.125 -13.71875 11.4375 -13.21875 C 11.75 -12.71875 11.90625 -12.097656 11.90625 -11.359375 C 11.90625 -10.742188 11.773438 -10.210938 11.515625 -9.765625 C 11.253906 -9.328125 10.910156 -8.96875 10.484375 -8.6875 C 10.066406 -8.40625 9.609375 -8.203125 9.109375 -8.078125 C 9.648438 -7.984375 10.1875 -7.8125 10.71875 -7.5625 C 11.25 -7.3125 11.6875 -6.9375 12.03125 -6.4375 C 12.382812 -5.9375 12.5625 -5.28125 12.5625 -4.46875 Z M 12.5625 -4.46875 "/></g></g></g><g fill="#000000" fill-opacity="1"><g transform="translate(271.197533, 304.51413)"><g><path d="M 2.046875 0 L 2.046875 -15.25 L 5.65625 -15.25 L 5.65625 -2.84375 L 12.265625 -2.84375 L 11.890625 0 Z M 2.046875 0 "/></g></g></g><g fill="#000000" fill-opacity="1"><g transform="translate(284.395294, 304.51413)"><g><path d="M 5.65625 -12.671875 L 5.65625 -9.015625 L 10.9375 -9.015625 L 10.9375 -6.484375 L 5.65625 -6.484375 L 5.65625 -2.578125 L 12.015625 -2.578125 L 12.015625 0 L 2.046875 0 L 2.046875 -15.25 L 12.015625 -15.25 L 11.65625 -12.671875 Z M 5.65625 -12.671875 "/></g></g></g><g fill="#000000" fill-opacity="1"><g transform="translate(297.5983, 304.51413)"><g/></g></g></svg>